SplineFontDB: 3.0
FontName: BlackLipstick
FullName: Black Lipstick
FamilyName: Black Lipstick
Weight: Regular
Copyright: (c)1998 - 2015 Terre Curran http://www.grilledcheese.com
Version: 2015-03-09
ItalicAngle: 0
UnderlinePosition: -123
UnderlineWidth: 20
Ascent: 800
Descent: 200
InvalidEm: 0
sfntRevision: 0x00010000
LayerCount: 2
Layer: 0 0 "Back" 1
Layer: 1 0 "Fore" 0
XUID: [1021 270 -1463357204 12714540]
FSType: 2
OS2Version: 1
OS2_WeightWidthSlopeOnly: 0
OS2_UseTypoMetrics: 1
CreationTime: 964567483
ModificationTime: 1426462635
PfmFamily: 81
TTFWeight: 400
TTFWidth: 5
LineGap: 0
VLineGap: 0
Panose: 0 0 4 0 0 0 0 0 0 0
OS2TypoAscent: 878
OS2TypoAOffset: 0
OS2TypoDescent: -319
OS2TypoDOffset: 0
OS2TypoLinegap: 0
OS2WinAscent: 878
OS2WinAOffset: 0
OS2WinDescent: 319
OS2WinDOffset: 0
HheadAscent: 878
HheadAOffset: 0
HheadDescent: -319
HheadDOffset: 0
OS2SubXSize: 700
OS2SubYSize: 650
OS2SubXOff: 0
OS2SubYOff: 143
OS2SupXSize: 700
OS2SupYSize: 650
OS2SupXOff: 0
OS2SupYOff: 453
OS2StrikeYSize: 50
OS2StrikeYPos: 259
OS2CapHeight: 0
OS2XHeight: 0
OS2Vendor: 'MACR'
OS2CodePages: 00000001.00000000
OS2UnicodeRanges: 00000003.00000000.00000000.00000000
Lookup: 258 0 0 "'kern' Horizontal Kerning in Latin lookup 0" { "'kern' Horizontal Kerning in Latin lookup 0 subtable"  } ['kern' ('DFLT' <'dflt' > 'latn' <'dflt' > ) ]
MarkAttachClasses: 1
DEI: 91125
TtTable: prep
NPUSHB
 19
 12
 12
 11
 11
 10
 10
 9
 9
 4
 4
 3
 3
 2
 2
 1
 1
 0
 0
 1
SCANTYPE
PUSHW_1
 511
SCANCTRL
RCVT
ROUND[Grey]
WCVTP
RCVT
ROUND[Grey]
WCVTP
RCVT
ROUND[Grey]
WCVTP
RCVT
ROUND[Grey]
WCVTP
RCVT
ROUND[Grey]
WCVTP
RCVT
ROUND[Grey]
WCVTP
RCVT
ROUND[Grey]
WCVTP
RCVT
ROUND[Grey]
WCVTP
RCVT
ROUND[Grey]
WCVTP
PUSHB_4
 6
 5
 70
 0
CALL
PUSHB_4
 8
 7
 70
 0
CALL
PUSHB_2
 5
 5
RCVT
ROUND[Grey]
WCVTP
PUSHB_2
 7
 7
RCVT
ROUND[Grey]
WCVTP
EndTTInstrs
TtTable: fpgm
NPUSHB
 1
 0
FDEF
SROUND
RCVT
DUP
PUSHB_1
 3
CINDEX
RCVT
SWAP
SUB
ROUND[Grey]
RTG
SWAP
ROUND[Grey]
ADD
WCVTP
ENDF
EndTTInstrs
ShortTable: cvt  16
  -281
  -6

StartChar: .notdef
Encoding: 256 -1 0
Width: 500
Flags: HW
LayerCount: 2
Back
Fore
SplineSet
63 0 m 1
 63 800 l 1
 438 800 l 1
 438 0 l 1
 63 0 l 1
125 63 m 1
 375 63 l 1
 375 738 l 1
 125 738 l 1
 125 63 l 1
EndSplineSet
Validated: 1
EndChar

StartChar: exclam
Encoding: 33 33 4
Width: 815
Flags: HW
HStem: 134 106<321.708 463.499> 523 94<321.959 463.495>
VStem: 154 103<305.903 456.675> 529 103<306.421 456.947>
LayerCount: 2
Back
Fore
SplineSet
632 376 m 0
 632 313 612 260 573 216 c 1
 655 134 l 1
 623 77 512 -16 437 -24 c 1
 487 -5 546 67 562 120 c 1
 516 167 l 1
 479 145 438 134 393 134 c 0
 340 134 294 149 254 179 c 1
 177 101 l 1
 119 134 27 245 19 320 c 1
 38 270 110 210 163 194 c 1
 201 232 l 1
 170 273 154 321 154 376 c 0
 154 426 167 470 193 508 c 1
 116 585 l 1
 150 642 260 734 335 743 c 1
 285 724 225 652 209 599 c 1
 244 564 l 1
 285 599 335 617 393 617 c 0
 443 617 487 604 524 578 c 1
 609 664 l 1
 666 631 759 521 767 445 c 1
 748 495 676 555 623 571 c 1
 579 527 l 1
 614 484 632 434 632 376 c 0
257 381 m 0
 257 305 318 240 393 240 c 256
 468 240 529 305 529 381 c 0
 529 457 469 523 393 523 c 256
 317 523 257 457 257 381 c 0
EndSplineSet
Validated: 1
EndChar

StartChar: quotedbl
Encoding: 34 34 5
Width: 811
Flags: W
HStem: 132 108<322.138 464.773> 522 96<327.963 473.054> 725 20G<392 406>
VStem: 157 105<300.726 455.712> 535 102<306.452 460.303>
LayerCount: 2
Back
Fore
SplineSet
637 378 m 4
 637 283 591 214 530 175 c 5
 588 74 l 5
 545 29 420 -22 336 -22 c 5
 395 -14 469 42 495 84 c 5
 462 142 l 5
 439 135 417 132 396 132 c 4
 317 132 250 173 212 221 c 5
 117 166 l 5
 70 211 22 328 21 418 c 5
 30 356 85 285 128 260 c 5
 174 286 l 5
 162 315 157 344 157 373 c 4
 157 447 192 515 238 554 c 5
 184 649 l 5
 229 696 348 745 436 745 c 5
 376 736 304 680 277 638 c 5
 302 595 l 5
 332 610 363 618 395 618 c 4
 474 618 538 582 576 536 c 5
 680 597 l 5
 724 554 776 430 776 346 c 5
 766 404 711 478 670 504 c 5
 616 473 l 5
 630 443 637 411 637 378 c 4
401 522 m 4
 323 522 262 458 262 378 c 4
 262 301 317 240 396 240 c 4
 474 240 535 302 535 383 c 4
 535 459 479 522 401 522 c 4
EndSplineSet
Validated: 1
EndChar

StartChar: numbersign
Encoding: 35 35 6
Width: 807
Flags: W
HStem: -10 14<260.152 353.348> 132 107<328.406 403> 492 20G<43 48.5 658.875 744> 518 97<364.087 480.491> 723 14<411.5 512.5>
VStem: 32 16<396.52 487.75> 161 106<343.292 450.746> 541 100<305.156 412.948> 761 16<271.25 362.467>
LayerCount: 2
Back
Fore
SplineSet
608 254 m 4
 577 199 533 163 477 145 c 5
 508 33 l 5
 468 10 396 -10 329 -10 c 4
 297 -10 265 -6 239 5 c 5
 245 4 251 4 257 4 c 4
 321 4 387 36 420 67 c 5
 403 132 l 5
 297 134 215 198 183 273 c 5
 77 244 l 5
 53 283 32 356 32 423 c 4
 32 455 37 486 49 512 c 5
 48 506 48 499 48 493 c 4
 48 430 81 364 111 331 c 5
 163 345 l 5
 162 355 161 365 161 375 c 4
 161 475 225 555 294 588 c 5
 266 693 l 5
 305 716 378 737 445 737 c 4
 477 737 508 732 534 720 c 5
 526 722 517 723 508 723 c 4
 449 723 382 685 354 658 c 5
 366 611 l 5
 381 614 395 615 408 615 c 4
 503 615 585 550 615 483 c 5
 732 515 l 5
 756 476 777 403 777 336 c 4
 777 304 772 273 760 247 c 5
 761 253 761 260 761 266 c 4
 761 329 729 395 698 427 c 5
 638 411 l 5
 640 397 641 384 641 371 c 4
 641 328 629 291 608 254 c 4
408 518 m 4
 335 518 267 460 267 374 c 4
 267 302 318 239 399 239 c 4
 473 239 541 297 541 383 c 4
 541 454 490 518 408 518 c 4
EndSplineSet
Validated: 1
EndChar

StartChar: dollar
Encoding: 36 36 7
Width: 864
Flags: HW
LayerCount: 2
Back
Fore
SplineSet
643 346 m 1
 632 234 533 136 419 131 c 1
 419 14 l 1
 400 9 376 6 346 6 c 0
 260 6 196 23 153 57 c 1
 172 48 197 44 226 44 c 0
 272 44 311 53 344 70 c 1
 344 137 l 1
 257 158 180 237 167 330 c 1
 58 330 l 1
 53 349 50 373 50 403 c 0
 50 489 67 553 100 596 c 1
 91 577 87 552 87 523 c 0
 87 477 96 438 114 405 c 1
 167 405 l 1
 180 502 262 588 356 605 c 1
 357 714 l 1
 376 719 400 722 430 722 c 0
 516 722 580 705 623 672 c 1
 604 681 579 685 550 685 c 0
 504 685 465 676 432 658 c 1
 432 609 l 1
 533 602 623 517 640 421 c 1
 761 422 l 1
 766 403 769 378 769 349 c 0
 769 262 752 198 718 156 c 1
 727 175 731 199 731 229 c 0
 731 274 722 313 705 346 c 1
 643 346 l 1
414 514 m 0
 336 514 270 448 270 370 c 0
 270 296 329 236 403 236 c 0
 481 236 547 302 547 380 c 0
 547 454 488 514 414 514 c 0
EndSplineSet
Validated: 1
EndChar

StartChar: percent
Encoding: 37 37 8
Width: 864
Flags: W
HStem: 19 69<227.849 269.388> 127 106<356.559 484.221> 508 100<340.201 421> 643 69<508.657 551.594>
VStem: 61 69<476.657 519.346> 165 107<292.663 390.963> 552 96<353.172 446.113> 696 69<222.654 265.343>
LayerCount: 2
Back
Fore
SplineSet
631 282 m 5
 601 201 515 127 407 127 c 4
 391 127 375 129 359 132 c 5
 329 19 l 5
 244 19 119 81 83 129 c 5
 116 102 163 88 224 88 c 4
 241 88 257 90 270 93 c 5
 288 157 l 5
 226 191 165 270 165 361 c 4
 165 370 166 380 167 389 c 5
 61 418 l 5
 61 504 123 627 172 664 c 5
 144 630 130 583 130 522 c 4
 130 505 132 490 135 476 c 5
 187 462 l 5
 219 538 301 608 405 608 c 4
 410 608 416 607 421 607 c 5
 450 712 l 5
 536 712 660 650 696 601 c 5
 663 629 615 643 554 643 c 4
 537 643 522 641 508 638 c 5
 495 591 l 5
 573 564 648 480 648 376 c 4
 648 369 648 362 647 355 c 5
 765 324 l 5
 765 238 703 115 654 78 c 5
 682 112 696 159 696 220 c 4
 696 237 694 252 691 266 c 5
 631 282 l 5
416 508 m 4
 331 508 272 440 272 366 c 4
 272 285 336 233 408 233 c 4
 493 233 552 301 552 375 c 4
 552 455 488 508 416 508 c 4
EndSplineSet
Validated: 1
EndChar

StartChar: ampersand
Encoding: 38 38 9
Width: 864
Flags: W
HStem: 123 106<336.292 489.704> 501 103<339.713 488.469> 515 21G<734 735.5>
VStem: 166 107<291.749 436.091> 555 96<294.304 440.359>
LayerCount: 2
Back
Fore
SplineSet
404 123 m 4xb8
 368 123 334 131 301 148 c 5
 243 47 l 5
 170 67 59 154 34 217 c 5
 62 178 142 135 206 134 c 5
 239 191 l 5
 190 237 166 295 166 365 c 4
 166 392 172 420 183 447 c 5
 88 501 l 5
 106 574 195 685 258 710 c 5
 220 683 175 602 174 539 c 5
 220 512 l 5
 261 565 325 604 411 604 c 4xd8
 436 604 460 600 484 591 c 5
 539 685 l 5
 612 665 723 578 748 515 c 5
 720 554 639 596 577 599 c 5
 552 556 l 5
 608 517 651 452 651 362 c 4
 651 338 647 314 638 289 c 5
 743 229 l 5
 723 156 636 45 573 20 c 5
 612 48 654 130 657 192 c 5
 603 223 l 5
 562 165 497 123 404 123 c 4xb8
273 363 m 4
 273 286 336 229 411 229 c 4
 492 229 555 289 555 368 c 4
 555 446 493 501 417 501 c 4
 337 501 273 441 273 363 c 4
EndSplineSet
Validated: 1
EndChar

StartChar: quotesingle
Encoding: 39 39 10
Width: 824
Flags: W
HStem: 120 103<338.147 488.585> 495 103<337.607 488.033>
VStem: 166 106<287.694 430.337> 554 95<287.332 430.182>
LayerCount: 2
Back
Fore
SplineSet
407 120 m 4
 345 120 292 140 248 179 c 5
 166 96 l 5
 108 129 16 240 8 315 c 5
 27 265 99 205 152 189 c 5
 199 236 l 5
 177 273 166 314 166 359 c 4
 166 412 181 458 211 498 c 5
 133 575 l 5
 166 633 276 725 352 733 c 5
 302 714 242 642 226 589 c 5
 264 551 l 5
 305 582 353 598 407 598 c 4
 457 598 501 585 540 559 c 5
 617 636 l 5
 674 602 766 492 775 417 c 5
 756 467 684 527 631 543 c 5
 596 508 l 5
 631 467 649 417 649 359 c 4
 649 309 636 265 610 228 c 5
 696 143 l 5
 663 86 552 -7 477 -15 c 5
 527 4 587 76 603 129 c 5
 559 173 l 5
 516 138 466 120 407 120 c 4
413 495 m 4
 337 495 272 434 272 359 c 260
 272 284 337 223 413 223 c 4
 489 223 554 283 554 359 c 260
 554 435 489 495 413 495 c 4
EndSplineSet
Validated: 1
EndChar

StartChar: parenleft
Encoding: 40 40 11
Width: 298
Flags: W
VStem: 23 71<116.907 530.096> 23 15<36.0095 98.2874 564.392 614.453>
LayerCount: 2
Back
Fore
SplineSet
28 141 m 4x40
 28 178 28 483 28 513 c 4
 28 572 25 609 23 622 c 4x40
 23 623 24 624 25 625 c 4
 28 625 33 609 42 577 c 4
 49 550 52 538 55 538 c 4
 60 538 70 556 74 562 c 28
 125 636 188 720 256 758 c 5
 315 776 l 5
 263 740 127 588 112 520 c 4
 100 465 94 396 94 326 c 4x80
 94 235 102 141 113 72 c 12
 122 9 238 -110 282 -144 c 5
 320 -175 l 5
 232 -153 136 -55 91 17 c 4
 80 34 73 47 68 58 c 4
 67 61 63 75 54 102 c 4
 54 109 53 114 52 115 c 4
 50 115 45 99 38 68 c 4
 31 37 28 21 24 21 c 4
 23 21 23 24 23 30 c 4
 23 57 28 135 28 141 c 4x40
EndSplineSet
Validated: 1
EndChar

StartChar: parenright
Encoding: 41 41 12
Width: 393
Flags: HW
HStem: 548 21G<290.5 294.5>
VStem: 254 66<126.907 540.096> 310 15<46.0095 108.287 574.392 624.453>
LayerCount: 2
Back
Fore
SplineSet
320 151 m 4xc0
 320 145 325 67 325 40 c 4xa0
 325 34 325 31 324 31 c 4
 320 31 317 47 310 78 c 4
 303 109 298 125 296 125 c 4
 295 124 294 119 294 112 c 4
 285 85 281 71 280 68 c 4
 275 57 268 44 257 27 c 4
 212 -45 116 -143 28 -165 c 5
 66 -134 l 5
 110 -100 226 19 235 82 c 20
 246 151 254 245 254 336 c 4xc0
 254 406 248 475 236 530 c 4
 221 598 85 750 33 786 c 5
 92 768 l 5
 160 730 223 646 274 572 c 28
 278 566 288 548 293 548 c 4
 296 548 299 560 306 587 c 4
 315 619 320 635 323 635 c 4
 324 634 325 633 325 632 c 4xa0
 323 619 320 582 320 523 c 4xc0
 320 493 320 188 320 151 c 4xc0
EndSplineSet
Validated: 1
EndChar

StartChar: asterisk
Encoding: 42 42 13
Width: 525
Flags: HW
LayerCount: 2
Back
Fore
SplineSet
250 336 m 0
 253.333333333 310 255.333333333 297.666666667 256 299 c 1
 257.333333333 284.333333333 254.666666667 271.666666667 248 261 c 0
 244 254.333333333 237.833333333 248.666666667 229.5 244 c 128
 221.166666667 239.333333333 217 236.666666667 217 236 c 0
 217 233.333333333 222.333333333 232 233 232 c 0
 244.333333333 232 254.833333333 236.666666667 264.5 246 c 128
 274.166666667 255.333333333 279 266 279 278 c 1
 279 272.666666667 276.333333333 293.666666667 271 341 c 0
 264.333333333 401.666666667 261 431.333333333 261 430 c 2
 261 445 l 1
 265.666666667 442.333333333 299.333333333 427.666666667 362 401 c 0
 373.333333333 396.333333333 385 391.666666667 397 387 c 0
 414.333333333 379 424 369.333333333 426 358 c 128
 428 346.666666667 429.666666667 335 431 323 c 0
 431 322.333333333 431.333333333 322 432 322 c 0
 433.333333333 322 435 323 437 325 c 0
 445 332.333333333 449 342.333333333 449 355 c 0
 449 373.666666667 441.333333333 387.333333333 426 396 c 0
 412.666666667 402 393.333333333 410.333333333 368 421 c 0
 346.666666667 429 319 441 285 457 c 1
 273 464 l 1
 290.333333333 474.666666667 320.666666667 496 364 528 c 0
 384.666666667 544 394.333333333 552 393 552 c 1
 404.333333333 560 415.333333333 564 426 564 c 0
 434 564 442 562 450 558 c 0
 457 554 457 554 464 550 c 1
 464.666666667 552 465.666666667 553.666666667 467 555 c 0
 461.666666667 577 446.333333333 588 421 588 c 0
 413 588 405.833333333 585.666666667 399.5 581 c 128
 393.166666667 576.333333333 376.333333333 564 349 544 c 0
 333.666666667 530.666666667 309.666666667 512.666666667 277 490 c 1
 260 481 l 1
 260 503.666666667 256.666666667 540.666666667 250 592 c 0
 247.333333333 618 245.666666667 630.333333333 245 629 c 1
 243 644.333333333 245.333333333 657 252 667 c 0
 256.666666667 673.666666667 263 679.333333333 271 684 c 128
 279 688.666666667 283 691.333333333 283 692 c 0
 283 695.333333333 278 697 268 697 c 0
 256.666666667 697 246.166666667 692.333333333 236.5 683 c 128
 226.833333333 673.666666667 222 663 222 651 c 1
 222 656.333333333 224.666666667 635.333333333 230 588 c 0
 236.666666667 527.333333333 240 497.333333333 240 498 c 2
 240 483 l 1
 217.333333333 495.666666667 183.666666667 511.333333333 139 530 c 0
 122 537 122 537 105 544 c 0
 87 552 77 561.666666667 75 573 c 128
 73 584.333333333 71.3333333333 596 70 608 c 0
 70 608.666666667 69.6666666667 609 69 609 c 0
 67.6666666667 609 66.3333333333 608 65 606 c 0
 57 598.666666667 53 588.666666667 53 576 c 0
 53 557.333333333 60.3333333333 543.666666667 75 535 c 0
 88.3333333333 529.666666667 107.666666667 521.333333333 133 510 c 0
 154.333333333 502 182 490 216 474 c 1
 228 467 l 1
 228 467 228 467 139 400 c 0
 118.333333333 384.666666667 108.666666667 377 110 377 c 1
 98.6666666667 369 87.3333333333 365 76 365 c 0
 68.6666666667 365 60.6666666667 367 52 371 c 0
 48 373.666666667 43.6666666667 376.333333333 39 379 c 0
 37.6666666667 377 36.6666666667 375 36 373 c 0
 40.6666666667 351.666666667 56 341 82 341 c 0
 89.3333333333 341 96.3333333333 343.333333333 103 348 c 128
 109.666666667 352.666666667 126.666666667 365 154 385 c 0
 171.333333333 399 195.333333333 417 226 439 c 2
 240 448 l 1
 240.666666667 424.666666667 244 387.333333333 250 336 c 0
253 648 m 0
 253 664.666666667 261.666666667 673 279 673 c 0
 295.666666667 673 304 664.666666667 304 648 c 0
 304 630.666666667 295.666666667 622 279 622 c 0
 261.666666667 622 253 630.666666667 253 648 c 0
92 561 m 256
 77.3333333333 569.666666667 74.3333333333 581.333333333 83 596 c 0
 91.6666666667 610 103 613 117 605 c 0
 131.666666667 596.333333333 135 584.666666667 127 570 c 0
 118.333333333 555.333333333 106.666666667 552.333333333 92 561 c 256
88 375 m 256
 73.3333333333 366.333333333 62 369.333333333 54 384 c 0
 45.3333333333 398.666666667 48.3333333333 410.333333333 63 419 c 0
 77.6666666667 427 89 424 97 410 c 0
 105.666666667 395.333333333 102.666666667 383.666666667 88 375 c 256
247 280 m 256
 247 263.333333333 238.333333333 255 221 255 c 0
 204.333333333 255 196 263.333333333 196 280 c 256
 196 296.666666667 204.333333333 305 221 305 c 0
 238.333333333 305 247 296.666666667 247 280 c 256
408 369 m 0
 422.666666667 361 425.666666667 349.666666667 417 335 c 0
 409 320.333333333 397.666666667 317.333333333 383 326 c 0
 368.333333333 334 365.333333333 345.333333333 374 360 c 0
 382 374.666666667 393.333333333 377.666666667 408 369 c 0
414 553 m 256
 428.666666667 561.666666667 440.333333333 558.666666667 449 544 c 0
 457 529.333333333 453.666666667 517.666666667 439 509 c 0
 424.333333333 501 413 504.333333333 405 519 c 0
 396.333333333 533 399.333333333 544.333333333 414 553 c 256
EndSplineSet
Validated: 524329
EndChar

StartChar: zero
Encoding: 48 48 14
Width: 720
Flags: W
HStem: -31 33<418 474.159> 715 33<241.528 297>
VStem: 30 99<215.968 513.878> 310 24<-140.756 -72.7022> 386 25<790.702 859.787> 592 98<205.445 501.629>
LayerCount: 2
Back
Fore
SplineSet
30 366 m 0
 30 533 118 748 297 748 c 1
 297 715 l 1
 247 715 207 683 176 619 c 0
 145 551 129 458 129 339 c 0
 129 264 162 121 208 75 c 1
 386 820 l 2
 397 859 404 878 408 878 c 0
 410 878 411 873 411 862 c 0
 411 821 394 682 359 445 c 2
 291 -20 l 1
 121 -20 30 194 30 366 c 0
690 352 m 0
 690 182 599 -31 418 -31 c 1
 418 2 l 1
 468 2 509 34 541 99 c 0
 575 167 592 260 592 378 c 0
 592 454 558 597 512 643 c 1
 334 -102 l 2
 323 -141 316 -160 313 -160 c 0
 311 -160 310 -155 310 -145 c 0
 310 -104 327 36 362 273 c 2
 429 737 l 1
 599 737 690 523 690 352 c 0
EndSplineSet
Validated: 1
EndChar

StartChar: one
Encoding: 49 49 15
Width: 720
Flags: HW
LayerCount: 2
Back
Fore
SplineSet
237 -2 m 6
 234 -1 233 -1 232 0 c 4
 232 2 253 6 294 14 c 132
 335 22 358 28 362 31 c 4
 377 42 385 65 385 100 c 6
 385 599 l 6
 385 633 375 650 355 650 c 4
 340 650 335 645 301 629 c 132
 274 616 258 610 254 610 c 5
 253 610 l 5
 254 611 255 613 257 615 c 6
 277 638 l 5
 431 745 l 5
 488 723 l 21
 443 692 l 13
 443 -2 l 5
 237 -2 l 6
EndSplineSet
Validated: 1
EndChar

StartChar: two
Encoding: 50 50 16
Width: 720
Flags: HW
HStem: -24 75<382 565> 660 72<270.444 389.148>
VStem: 477 105<374.812 560.349> 595 29<97.1052 206.157>
LayerCount: 2
Back
Fore
SplineSet
565 -24 m 1
 290 -24 l 1
 382 51 l 1
 490 51 l 2
 508 51 526 55 545 62 c 0
 564 69 575 78 578 87 c 0
 584 111 590 135 595 158 c 0
 606 199 613 220 618 220 c 0
 621 220 623 211 624 192 c 2
 624 35 l 1
 565 -24 l 1
104 -80 m 2
 189 15 l 1
 284 113 313 155 379 247 c 0
 444 339 477 409 477 457 c 0
 477 484 472 512 462 541 c 0
 438 610 386 660 313 660 c 0
 290 660 266 650 239 631 c 0
 176 585 189 584 166 486 c 0
 153 430 140 404 135 404 c 0
 133 404 132 409 132 419 c 2
 133 545 l 1
 164 635 252 732 361 732 c 0
 500 732 582 623 582 486 c 0
 582 409 556 309 518 256 c 0
 497 225 465 188 421 143 c 1
 360 94 299 45 238 -4 c 0
 157 -67 111 -99 99 -99 c 0
 97 -99 96 -98 96 -96 c 0
 96 -93 99 -87 104 -80 c 2
EndSplineSet
Validated: 1
EndChar

StartChar: three
Encoding: 51 51 17
Width: 720
Flags: W
HStem: -47 31<242.859 372.94> 334 37<274.591 349.828> 670 47<264.279 394.758>
VStem: 148 27<516.891 596.385> 447 87<491.833 628.625> 490 104<141.852 269.675>
LayerCount: 2
Back
Fore
SplineSet
289 334 m 0xf8
 286 334 280 327 273 313 c 0
 266 299 261 292 258 292 c 1
 258 374 l 1
 267 372 275 371 284 371 c 0
 323 371 360 387 396 420 c 0
 430 450 447 486 447 527 c 0
 447 569 447 582 447 584 c 1
 446 604 440 618 429 627 c 0
 416 638 398 648 376 657 c 0
 354 666 333 670 316 670 c 0
 271 670 232 655 200 624 c 0
 194 619 186 592 175 545 c 0
 163 495 154 464 148 453 c 1
 146 506 139 569 139 612 c 0
 139 623 145 633 157 643 c 0
 177 660 209 676 254 692 c 0
 299 708 334 717 359 717 c 0
 408 717 448 704 481 678 c 0
 516 650 534 612 534 565 c 0
 534 530 521 498 496 468 c 0
 479 448 455 425 426 398 c 1
 424 396 419 392 400 380 c 0
 384 369 374 363 371 362 c 0
 334 343 306 334 289 334 c 0xf8
468 270 m 0
 443 307 407 329 358 337 c 1
 393 347 418 358 435 369 c 0
 442 374 460 389 487 414 c 1
 546 390 594 309 594 234 c 0
 594 164 552 84 493 32 c 0
 434 -20 357 -47 260 -47 c 0
 227 -47 199 -35 176 -12 c 0
 153 11 142 41 142 76 c 0
 142 93 145 110 151 127 c 0
 151 128 152 129 153 129 c 0
 154 129 158 115 167 86 c 0
 176 57 184 42 193 42 c 0
 199 42 205 49 212 62 c 0
 213 66 213 67 216 68 c 1
 216 68 217 58 220 39 c 0
 223 17 232 2 246 -5 c 0
 260 -12 274 -16 290 -16 c 0
 292 -16 309 -13 340 -8 c 0
 395 1 433 19 453 44 c 0
 478 75 490 113 490 157 c 0xf4
 490 211 483 249 468 270 c 0
EndSplineSet
Validated: 1
EndChar

StartChar: four
Encoding: 52 52 18
Width: 720
Flags: W
HStem: 0 21G<416 519> 196 65<149 417>
VStem: 417 102<0 196 287 615>
LayerCount: 2
Back
Fore
SplineSet
149 261 m 1
 404 261 l 1
 618 196 l 1
 519 196 l 1
 519 0 l 1
 416 0 l 1
 417 196 l 1
 102 196 l 1
 103 260 l 1
 275 420 l 1
 149 261 l 1
453 728 m 1
 567 743 l 1
 519 693 l 1
 520 255 l 1
 417 287 l 1
 417 615 l 1
 193 408 l 1
 453 728 l 1
EndSplineSet
Validated: 1
EndChar

StartChar: five
Encoding: 53 53 19
Width: 720
Flags: WO
HStem: -24 29<267.559 396.348> 352 123<288 387.554>
VStem: 199 46<460.01 616> 480 80<119.691 266.625>
LayerCount: 2
Back
Fore
SplineSet
156 408 m 4
 157 409 164 427 177 460 c 4
 190 493 198 510 199 512 c 6
 199 705 l 5
 528 705 l 5
 533 710 540 714 546 714 c 4
 552 714 558 717 564 724 c 5
 589 718 l 5
 540 623 l 6
 521 587 516 564 499 564 c 4
 498 564 496 564 494 564 c 6
 245 616 l 5
 245 454 l 5
 184 328 l 5
 176 353 167 379 156 408 c 4
288 475 m 5
 290 475 292 475 294 475 c 4
 362 475 478 421 506 383 c 4
 542 334 560 283 560 231 c 4
 560 150 531 82 474 28 c 4
 437 -7 386 -24 322 -24 c 4
 293 -24 270 -19 254 -10 c 4
 231 3 210 9 189 9 c 4
 180 9 170 8 160 6 c 4
 150 4 144 2 142 2 c 4
 135 2 131 8 131 21 c 4
 131 37 151 80 190 150 c 4
 190 151 190 151 191 151 c 4
 192 151 198 137 207 110 c 4
 217 79 228 58 239 45 c 4
 263 18 286 5 309 5 c 4
 370 5 411 18 433 45 c 4
 464 82 480 128 480 181 c 4
 480 229 464 268 434 299 c 4
 404 330 361 352 309 352 c 4
 298 352 277 339 247 309 c 4
 215 275 183 241 150 208 c 5
 288 475 l 5
EndSplineSet
Validated: 1
EndChar

StartChar: six
Encoding: 54 54 20
Width: 720
Flags: HW
LayerCount: 2
Back
Fore
SplineSet
556 115 m 0
 547.333333333 83.6666666667 519.666666667 55.3333333333 473 30 c 0
 430.333333333 7.33333333333 390.666666667 -4 354 -4 c 0
 283.333333333 -4 224 25 176 83 c 0
 122 148.333333333 95 229.666666667 95 327 c 0
 95 459 146.333333333 570 249 660 c 0
 335 735.333333333 438.666666667 773 560 773 c 1
 484 565 l 1
 486 607 476.333333333 640.333333333 455 665 c 0
 436.333333333 686.333333333 413.333333333 697 386 697 c 0
 366 697 349.333333333 690.333333333 336 677 c 0
 285.333333333 626.333333333 248 547 224 439 c 1
 212 399 206 348 206 286 c 0
 206 212.666666667 220.333333333 155.333333333 249 114 c 0
 269.666666667 83.3333333333 287.333333333 62 302 50 c 0
 320.666666667 34.6666666667 341.666666667 27 365 27 c 0
 405.666666667 27 437 45.6666666667 459 83 c 0
 469.666666667 101 476.666666667 114 480 122 c 0
 485.333333333 136 488.333333333 153.666666667 489 175 c 1
 626 276 l 1
 595.333333333 224 572 170.333333333 556 115 c 0
446 172 m 1
 464.666666667 214.666666667 474 254.666666667 474 292 c 0
 474 311.333333333 471.333333333 327.666666667 466 341 c 0
 453.333333333 371.666666667 437.333333333 397.333333333 418 418 c 0
 396 441.333333333 373.333333333 453 350 453 c 0
 343.333333333 453 336.666666667 452 330 450 c 0
 310 444 290.333333333 425.333333333 271 394 c 0
 257 368 243 341.666666667 229 315 c 1
 231.666666667 340.333333333 234.333333333 365.333333333 237 390 c 0
 241 421.333333333 246.666666667 439.333333333 254 444 c 0
 268 453.333333333 289.166666667 463 317.5 473 c 128
 345.833333333 483 367 488 381 488 c 0
 441 488 490 467.666666667 528 427 c 0
 544 409.666666667 557.333333333 387 568 359 c 0
 580.666666667 327 587 296 587 266 c 1
 566.333333333 252 545.333333333 238.333333333 524 225 c 0
 476.666666667 192.333333333 450.666666667 174.666666667 446 172 c 1
EndSplineSet
Validated: 524321
EndChar

StartChar: seven
Encoding: 55 55 21
Width: 720
Flags: HW
LayerCount: 2
Back
Fore
SplineSet
550 599 m 1
 341 -49 l 1
 275 -49 l 1
 458 506 l 2
 462.666666667 518 465 527.333333333 465 534 c 0
 465 552 447.666666667 563 413 567 c 1
 550 599 l 1
473 610 m 1
 250 610 l 2
 245.333333333 610 235.666666667 610.333333333 221 611 c 0
 211 611.666666667 203.666666667 611.666666667 199 611 c 0
 193 609.666666667 187.333333333 607.333333333 182 604 c 128
 176.666666667 600.666666667 170.833333333 597.166666667 164.5 593.5 c 128
 158.166666667 589.833333333 150 580 140 564 c 1
 106 564 l 1
 142 645 l 2
 147.333333333 657 150 666.666666667 150 674 c 0
 150 686.666666667 143.666666667 695 131 699 c 1
 578 699 l 1
 578 684 l 2
 577.333333333 680.666666667 577 677.666666667 577 675 c 0
 577 655 589.333333333 643.666666667 614 641 c 1
 473 610 l 1
EndSplineSet
Validated: 524289
EndChar

StartChar: eight
Encoding: 56 56 22
Width: 720
Flags: HW
LayerCount: 2
Back
Fore
SplineSet
459 198 m 0
 481 172 492 140 492 102 c 0
 492 63.3333333333 480.5 33.3333333333 457.5 12 c 128
 434.5 -9.33333333333 403.666666667 -20 365 -20 c 0
 327 -20 294 -4 266 28 c 0
 240.666666667 56.6666666667 228 95 228 143 c 0
 228 174.333333333 253.333333333 232.666666667 304 318 c 0
 305.333333333 320 340 375 408 483 c 1
 390 471 351 432 291 366 c 0
 245 316 210.666666667 277.333333333 188 250 c 0
 158 214.666666667 143 174.333333333 143 129 c 0
 143 73 166 28 212 -6 c 0
 252.666666667 -36 302 -51 360 -51 c 0
 419.333333333 -51 469.333333333 -35.3333333333 510 -4 c 0
 554.666666667 30 577 76 577 134 c 0
 577 180 564 220.333333333 538 255 c 0
 518 281.666666667 483.333333333 313.333333333 434 350 c 1
 370 288 l 1
 400.666666667 266 422.333333333 247.333333333 435 232 c 0
 447 215 447 215 459 198 c 0
190 426 m 0
 163.333333333 461.333333333 150 499.666666667 150 541 c 0
 150 595 173 638.333333333 219 671 c 0
 259.666666667 699 308.333333333 713 365 713 c 0
 415.666666667 713 459 700 495 674 c 0
 535.666666667 644.666666667 556 605.333333333 556 556 c 0
 556 513.333333333 538.833333333 475.333333333 504.5 442 c 128
 470.166666667 408.666666667 436.333333333 375.333333333 403 342 c 0
 342.333333333 283.333333333 302.666666667 248.666666667 284 238 c 1
 299.333333333 252 329 290.666666667 373 354 c 0
 396.333333333 388.666666667 419.666666667 423 443 457 c 0
 466.333333333 486.333333333 478 520.333333333 478 559 c 0
 478 598.333333333 466.166666667 628.833333333 442.5 650.5 c 128
 418.833333333 672.166666667 387.333333333 683 348 683 c 0
 316 683 288.833333333 672.833333333 266.5 652.5 c 128
 244.166666667 632.166666667 233 606.333333333 233 575 c 0
 233 545 238.833333333 522.833333333 250.5 508.5 c 128
 262.166666667 494.166666667 291.666666667 472.666666667 339 444 c 1
 260 359 l 1
 228.666666667 383.666666667 205.333333333 406 190 426 c 0
EndSplineSet
Validated: 524297
EndChar

StartChar: nine
Encoding: 57 57 23
Width: 620
Flags: HW
LayerCount: 2
Back
Fore
SplineSet
89 586 m 0
 97.6666666667 617.333333333 125.333333333 645.666666667 172 671 c 0
 214.666666667 693.666666667 254.333333333 705 291 705 c 0
 362.333333333 705 422 676 470 618 c 0
 524 552 551 470.666666667 551 374 c 0
 551 242 499.666666667 131 397 41 c 0
 311 -34.3333333333 207 -72 85 -72 c 1
 161 136 l 1
 159.666666667 94 169.666666667 60.6666666667 191 36 c 0
 209.666666667 14.6666666667 232.333333333 4 259 4 c 0
 279.666666667 4 296.666666667 10.6666666667 310 24 c 0
 360.666666667 74.6666666667 398 154 422 262 c 0
 433.333333333 302 439 353 439 415 c 0
 439 488.333333333 425 545.666666667 397 587 c 0
 376.333333333 617.666666667 358.666666667 639 344 651 c 0
 324.666666667 666.333333333 303.333333333 674 280 674 c 0
 239.333333333 674 208 655.333333333 186 618 c 0
 175.333333333 600 168.666666667 586.666666667 166 578 c 0
 160.666666667 564 157.666666667 546.666666667 157 526 c 1
 16 434 l 1
 43.3333333333 481.333333333 60 510.333333333 66 521 c 0
 74 538.333333333 81.6666666667 560 89 586 c 0
200 529 m 1
 181.333333333 486.333333333 172 446.333333333 172 409 c 0
 172 389.666666667 174.666666667 373.333333333 180 360 c 0
 192 329.333333333 207.666666667 303.666666667 227 283 c 0
 249 259.666666667 272 248 296 248 c 0
 302.666666667 248 309 249 315 251 c 0
 335.666666667 257 355.333333333 275.666666667 374 307 c 0
 395 346 395 346 416 385 c 1
 412 348 412 348 408 311 c 0
 404 279.666666667 398.333333333 261.666666667 391 257 c 0
 377.666666667 247.666666667 356.833333333 238 328.5 228 c 128
 300.166666667 218 278.666666667 213 264 213 c 0
 204.666666667 213 155.666666667 233.333333333 117 274 c 0
 101.666666667 290.666666667 88.3333333333 313.333333333 77 342 c 0
 64.3333333333 374 58 405 58 435 c 1
 79.3333333333 449 100.333333333 462.666666667 121 476 c 0
 168.333333333 508.666666667 194.666666667 526.333333333 200 529 c 1
EndSplineSet
Validated: 524321
EndChar

StartChar: A
Encoding: 65 65 24
Width: 789
Flags: W
HStem: 0 4<218.417 243 755 779> 241 6<231.001 272>
LayerCount: 2
Back
Fore
SplineSet
543 0 m 1
 779 0 l 1
 781 3 l 1
 690 25 l 2
 683 26 675 31 665 41 c 1
 658 55 658 55 644 83 c 2
 384 661 l 1
 312 705 l 1
 238 607 l 1
 288 621 l 1
 428 282 l 1
 233 247 l 2
 232 246 231 245 231 244 c 0
 231 243 232 242 234 241 c 2
 447 227 l 1
 543 0 l 1
344 435 m 1
 269 595 l 1
 5 0 l 1
 243 0 l 1
 246 4 l 1
 227 5 205 7 181 10 c 1
 134 22 107 20 107 61 c 0
 107 70 110 82 115 99 c 2
 263 457 l 2
 266 466 271 470 280 470 c 0
 299 470 318 457 338 432 c 0
 340 431 342 432 344 435 c 1
EndSplineSet
Validated: 9
EndChar

StartChar: B
Encoding: 66 66 25
Width: 743
Flags: W
HStem: 0 38<155.97 462.094> 0 29<76.7786 331.248> 0 2<11.0469 18.7983> 354 3<67.0573 88.5585> 665 41<277.745 448.889>
VStem: 161 109<593 660.807> 542 97<446.113 519.999> 562 97<182.513 268.707>
LayerCount: 2
Back
Fore
SplineSet
608 309 m 4x9d
 577 336 540 354 496 364 c 5
 535 374 565 387 585 402 c 4
 621 429 639 467 639 518 c 4
 639 519 640 520 641 520 c 4
 645 520 652 517 663 510 c 4
 674 503 681 496 684 491 c 5
 677 645 525 706 354 706 c 4
 272 704 193 696 117 683 c 5
 63 721 l 5
 112 597 l 5
 115 602 139 662 145 662 c 4
 155 662 159 612 161 593 c 5
 161 378 l 5
 270 388 l 5
 270 628 l 6
 270 646 274 657 281 661 c 4
 286 664 299 665 320 665 c 4
 447 665 542 626 542 523 c 4x9e
 542 425 471 392 372 384 c 5
 73 357 l 6
 70 357 68 356 66 355 c 4
 66 354 68 354 73 354 c 4
 93 353 122 350 161 346 c 5
 161 44 l 5
 270 49 l 5
 270 344 l 5
 322 344 l 6
 482 344 562 293 562 192 c 4
 562 89 494 44 358 38 c 6x9d
 358 38 140 29 138 29 c 4x5d
 133 28 35 5 14 2 c 4
 13 1 12 1 11 0 c 6x3d
 405 0 l 6
 587 0 697 63 704 209 c 5
 701 204 694 198 684 191 c 4
 674 184 666 180 661 180 c 4
 660 180 659 181 659 183 c 4
 662 235 645 277 608 309 c 4x9d
EndSplineSet
Validated: 41
EndChar

StartChar: C
Encoding: 67 67 26
Width: 664
Flags: W
HStem: -12 35<317.99 493.146> 683 44<286.534 505.262>
VStem: 18 146<261.051 448.574>
LayerCount: 2
Back
Fore
SplineSet
402 23 m 0
 508.332641344 23 601.368450365 67.8254304767 627 169 c 1
 672 125 l 1
 612.103297418 52.1536203599 506.965306256 -12 388 -12 c 4
 199.314432677 -12 18 130.494048967 18 314 c 0
 18 365.441621923 43.9614233966 418.762287209 62 459 c 1
 75.4291589878 338.125764985 85.2031981901 308.441293293 173 252 c 1
 193.029012953 129.326650595 269.445671475 23 402 23 c 0
563 586 m 0
 563 598.666992188 560.666992188 607.666992188 556 613 c 0
 510.004882812 670.494140625 487.71484375 683 379 683 c 0
 216 683 164 531.705490861 164 348 c 0
 164 318 165.333007812 298 168 288 c 1
 110.666992188 349.333007812 72.6669921875 420.333007812 54 501 c 1
 99.0869140625 633.823242188 218.698242188 727 391 727 c 0
 478.020507812 727 555 707 633 663 c 1
 528 418 l 2
 525 418 525 418 525 418 c 1
 532.662109375 445.774414062 563 551.388671875 563 586 c 0
EndSplineSet
Validated: 524289
EndChar

StartChar: D
Encoding: 68 68 27
Width: 864
Flags: W
HStem: 0 48<283.312 488.883> 658 51<315.216 488.144>
VStem: 166 121<592 649.965> 665 124<219.891 474.44>
LayerCount: 2
Back
Fore
SplineSet
4 0 m 5
 370 0 l 6
 617 0 789 112 789 352 c 4
 789 403 782 445 768 478 c 5
 829 452 l 5
 790 597 601 709 407 709 c 4
 392 709 361 708 361 708 c 6
 119 672 l 5
 65 709 l 5
 114 585 l 5
 114 585 134 650 148 650 c 4
 160 650 166 631 166 592 c 6
 166 59 l 5
 287 77 l 5
 287 615 l 6
 287 654 305 658 348 658 c 4
 559 658 665 559 665 352 c 4
 665 129 563 52 331 48 c 5
 4 0 l 5
EndSplineSet
Validated: 9
EndChar

StartChar: E
Encoding: 69 69 28
Width: 725
Flags: W
HStem: 0 44<296.813 567.468> 0 2<12 17.0237> 360 2<79 130.769> 668 42<292.927 327 444 563.01>
VStem: 176 116<44.6562 347 629 650.338> 629 4<500 508.988>
LayerCount: 2
Back
Fore
SplineSet
281 710 m 6x3c
 244 710 194 698 131 675 c 5
 73 698 l 5
 132 583 l 5
 135 592 141 607 150 628 c 4
 156 643 161 651 164 651 c 4
 169 651 173 644 176 629 c 5
 176 400 l 5
 292 414 l 5
 292 631 l 6
 292 661 297 668 327 668 c 6
 444 668 l 6
 550 668 571 657 603 596 c 4
 610 581 619 549 629 500 c 5
 633 500 l 5
 633 666 l 5
 589 710 l 5
 281 710 l 6x3c
663 0 m 5x7c
 11 0 l 5
 11 0 11 0 12 2 c 4x7c
 33 5 151 32 159 40 c 4
 170 50 176 75 176 115 c 6
 176 347 l 5
 78 360 l 5
 79 362 l 5
 429 392 l 6
 504 399 546 402 571 445 c 5
 513 298 l 5
 495 347 492 349 429 349 c 6
 292 349 l 5
 292 85 l 6
 292 72 299 58 312 44 c 5
 465 44 l 6xbc
 487 45 520 52 565 64 c 5
 618 90 649 194 689 251 c 4
 691 254 692 254 693 251 c 260
 694 248 693 243 692 234 c 4
 691 225 663 0 663 0 c 5x7c
EndSplineSet
Validated: 9
EndChar

StartChar: F
Encoding: 70 70 29
Width: 614
Flags: W
HStem: 0 2<376.546 381> 360 3<21 77.5833> 668 43<227.679 261 385 505.152>
VStem: 118 109<38.0002 105 628 650.338>
LayerCount: 2
Back
Fore
SplineSet
381 2 m 5
 352 7 264 26 246 40 c 4
 233 48 227 81 227 105 c 6
 227 350 l 5
 370 350 l 6
 434 350 435 348 455 299 c 5
 516 454 l 21
 513 454 l 5
 467 398 457 401 370 393 c 6
 21 363 l 5
 21 360 l 5
 118 348 l 5
 118 0 l 5
 381 0 l 5
 381 2 l 5
528 711 m 5
 220 711 l 6
 186 711 137 699 72 675 c 5
 14 698 l 5
 73 581 l 5
 74 586 79 602 90 629 c 4
 96 644 101 651 105 651 c 4
 110 651 114 643 118 628 c 5
 118 400 l 5
 227 414 l 5
 227 631 l 6
 227 661 231 668 261 668 c 6
 385 668 l 6
 491 668 511 657 543 596 c 4
 546 592 555 557 571 492 c 4
 571 491 572 491 572 491 c 4
 573 491 573 492 573 495 c 6
 574 665 l 5
 528 711 l 5
EndSplineSet
Validated: 9
EndChar

StartChar: G
Encoding: 71 71 30
Width: 719
Flags: W
HStem: -14 44<259.126 483.963> 310 15<373.533 406.833> 325 30<650.793 684> 679 46<255.465 455.725>
VStem: 27 90<260.344 469.862> 507 118<52.7904 290.847> 571 37<659.048 693>
LayerCount: 2
Back
Fore
SplineSet
357 679 m 4x9a
 203 676 117 570 117 409 c 4
 117 370 122 328 132 285 c 5
 89 332 57 405 36 505 c 5
 97 654 196 725 363 725 c 4
 403 725 449 713 501 690 c 4
 548 670 569 660 570 659 c 5
 571 660 571 662 571 667 c 4
 571 689 557 711 557 724 c 4
 557 725 557 725 557 726 c 5
 608 693 l 5
 608 399 l 5
 582 515 541 595 486 638 c 4
 452 665 409 679 357 679 c 4x9a
57 341 m 5
 65 302 90 270 133 243 c 5
 135 106 237 30 369 30 c 4
 412 30 458 40 507 61 c 5
 507 219 l 6
 507 293 485 302 423 310 c 6xdc
 317 325 l 5
 702 355 l 5
 684 320 l 5
 637 316 625 291 625 239 c 6
 625 10 l 5xbc
 612 28 601 37 591 37 c 4
 579 37 559 31 531 19 c 4
 480 -3 422 -14 355 -14 c 4
 165 -14 27 117 27 322 c 4
 27 367 32 411 43 453 c 5
 46 428 50 391 57 341 c 5
EndSplineSet
Validated: 1
EndChar

StartChar: H
Encoding: 72 72 31
Width: 736
Flags: W
HStem: 0 2<11 14.8161 742.078 745> 688 20G<146.424 308>
VStem: 158 109<31.139 42 397 652.995> 458 113<37.8516 345 633 652.995>
LayerCount: 2
Back
Fore
SplineSet
267 397 m 5
 158 375 l 5
 158 631 l 5
 151 646 146 653 143 653 c 4
 129 653 111 592 110 584 c 5
 60 713 l 5
 109 675 l 5
 204 708 l 5
 308 708 l 5
 267 662 l 5
 267 397 l 5
357 712 m 5
 406 588 l 5
 409 601 425 653 440 653 c 4
 443 653 449 646 458 633 c 5
 458 418 l 5
 62 322 l 5
 158 322 l 5
 158 42 l 5
 145 27 50 9 11 2 c 5
 11 0 l 5
 267 0 l 5
 267 322 l 5
 672 418 l 5
 571 418 l 5
 571 661 l 5
 611 708 l 5
 507 708 l 5
 413 674 l 5
 357 712 l 5
745 0 m 6
 458 0 l 5
 458 345 l 5
 571 367 l 5
 571 51 l 5
 599 25 683 14 745 2 c 5
 745 2 745 2 745 0 c 6
EndSplineSet
Validated: 9
EndChar

StartChar: I
Encoding: 73 73 32
Width: 502
Flags: W
HStem: -1 4<469.701 486> 587 103<329.91 376> 704 4<43.0007 52.332>
VStem: 219 86<43.125 669.766> 319 102<597.78 678.703>
LayerCount: 2
Back
Fore
SplineSet
305 119 m 6
 305 36 327 34 409 16 c 4
 448 8 474 4 486 3 c 5
 487 -1 l 5
 219 -1 l 5
 219 591 l 6
 219 679 206 672 117 690 c 4
 92 694 68 699 43 704 c 4
 43 705 44 707 47 708 c 6
 305 707 l 5
 305 119 l 6
421 667 m 5
 416 676 383 690 369 690 c 4
 347 690 319 665 319 643 c 4
 319 609 338 590 376 587 c 5
 421 471 l 5
 421 667 l 5
EndSplineSet
Validated: 9
EndChar

StartChar: J
Encoding: 74 74 33
Width: 500
Flags: W
HStem: -32 38<98.5459 213.695> 564 111<352.079 398> 670 10<37 98.125>
VStem: 59 29<22.5179 80.0404> 214 87<16.0063 640.6> 341 102<575.554 664.03>
LayerCount: 2
Back
Fore
SplineSet
214 14 m 5xbc
 214 565 l 5
 213 591 205 633 196 641 c 4
 181 655 128 665 37 670 c 5
 35 680 l 5
 301 680 l 5
 301 92 l 5
 294 62 287 37 279 16 c 5
 262 -16 231 -32 187 -32 c 4
 129 -32 59 -12 59 44 c 4
 59 77 82 94 114 97 c 5
 100 83 90 64 88 41 c 5
 88 16 150 6 179 6 c 4
 190 6 201 9 214 14 c 5xbc
443 645 m 5
 427 665 411 675 394 675 c 4
 364 675 341 650 341 621 c 4
 341 587 360 568 398 564 c 5xdc
 443 447 l 5
 443 645 l 5
EndSplineSet
Validated: 9
EndChar

StartChar: K
Encoding: 75 75 34
Width: 744
Flags: W
HStem: 0 1<469 471.469>
VStem: 191 106<39.3931 234 592 657.984>
LayerCount: 2
Back
Fore
SplineSet
197 708 m 5
 150 693 l 5
 98 721 l 5
 147 597 l 5
 147 597 170 658 181 658 c 4
 188 658 191 636 191 592 c 6
 191 325 l 5
 297 435 l 5
 297 708 l 5
 197 708 l 5
602 51 m 6
 351 328 l 5
 297 292 l 5
 297 0 l 5
 30 0 l 6
 29 0 29 0 29 0 c 4
 29 1 37 3 54 6 c 4
 94 14 158 23 172 42 c 4
 185 60 191 89 191 128 c 6
 191 234 l 5
 89 177 l 5
 519 607 l 21
 519 616 500 648 455 715 c 5
 677 586 l 5
 394 363 l 5
 732 0 l 5
 468 0 l 29
 469 1 l 5
 469 1 514 9 532 13 c 4
 583 24 606 32 606 42 c 4
 606 45 605 48 602 51 c 6
EndSplineSet
Validated: 9
EndChar

StartChar: L
Encoding: 76 76 35
Width: 718
Flags: HW
HStem: 0 42<174.341 582.36> 606 104<340.54 387>
VStem: 201 95<573 633.972> 330 102<617.078 699.03>
LayerCount: 2
Back
Fore
SplineSet
296 708 m 5
 224 708 l 5
 185 685 l 5
 104 698 l 5
 153 574 l 5
 153 574 178 634 187 634 c 4
 195 634 201 595 201 573 c 6
 201 77 l 5
 296 77 l 5
 296 708 l 5
423 42 m 6
 541 42 607 58 657 112 c 4
 666 122 694 159 742 224 c 5
 656 0 l 5
 21 0 l 5
 47 2 173 29 186 42 c 5
 423 42 l 6
432 686 m 6
 432 702 398 710 379 710 c 4
 357 709 330 686 330 663 c 4
 330 628 349 609 387 606 c 5
 432 490 l 5
 432 686 l 6
EndSplineSet
Validated: 9
EndChar

StartChar: M
Encoding: 77 77 36
Width: 997
Flags: W
HStem: 1 16<195.238 247.25 830.424 922.334>
VStem: 77 48<47.5986 157> 631 119<41.5105 590>
LayerCount: 2
Back
Fore
SplineSet
547 -46 m 1
 171 707 l 1
 106 707 l 1
 31 682 l 1
 -22 714 l 1
 27 589 l 1
 35 607 35 607 43 625 c 0
 52.3333333333 644.333333333 58.6666666667 654 62 654 c 0
 66 654 69.3333333333 644.666666667 72 626 c 0
 75.3333333333 600 77 586.333333333 77 585 c 2
 77 0 l 1
 311 0 l 2
 289.666666667 2 259 8.16666666667 219 18.5 c 0
 179 28.8333333333 156.333333333 36.6666666667 151 42 c 0
 133.666666667 60 125 98.3333333333 125 157 c 2
 125 584 l 1
 332 130 l 1
 547 -46 l 1
750 116 m 2
 750 76.6666666667 755.666666667 51.6666666667 767 41 c 0
 774.333333333 34.3333333333 814 26.3333333333 886 17 c 0
 952.666666667 7.66666666667 984.666666667 2.33333333333 982 1 c 2
 631 1 l 1
 631 590 l 1
 459 227 l 1
 416 306 l 1
 620 704 l 1
 749 704 l 1
 750 116 l 2
EndSplineSet
Validated: 524329
EndChar

StartChar: N
Encoding: 78 78 37
Width: 799
Flags: W
HStem: -1 3<311.474 337.998> 689 19<707.172 829.471>
VStem: 106 50<62.5078 160> 576 55<551 659.932>
LayerCount: 2
Back
Fore
SplineSet
731 0 m 1
 524 95 l 1
 106 611 l 1
 100.666666667 641.666666667 94 657 86 657 c 0
 82 657 75.6666666667 647.666666667 67 629 c 0
 50 593 50 593 50 593 c 1
 0 717 l 1
 51 683 l 1
 171 712 l 1
 731 0 l 1
156 160 m 2
 156 501 l 1
 106 563 l 1
 106 -1 l 1
 331 -1 l 2
 335.666666667 -0.333333333333 338 0.666666666667 338 2 c 2
 338 2 338 2 266 21 c 0
 214.666666667 34.3333333333 183.5 50.5 172.5 69.5 c 0
 161.5 88.5 156 118.666666667 156 160 c 2
576 257 m 1
 631 181 l 1
 631 551 l 2
 631 605.666666667 637.333333333 641 650 657 c 0
 660 669.666666667 697.333333333 680.333333333 762 689 c 0
 824.666666667 697 856 702 856 704 c 0
 856 705.333333333 851.666666667 706.666666667 843 708 c 2
 576 709 l 1
 576 257 l 1
EndSplineSet
Validated: 524297
EndChar

StartChar: O
Encoding: 79 79 38
Width: 720
Flags: W
HStem: -33 18<240.5 386.5> 647 22<265 456.5>
VStem: 41 95<200.275 380.126> 556 94<255.57 433.188>
LayerCount: 2
Back
Fore
SplineSet
342 -33 m 260
 299 -33 253 -25 206 -8 c 5
 219 -13 233 -15 248 -15 c 4
 391 -15 477 94 524 224 c 4
 545 283 556 335 556 381 c 4
 556 496 507 541 404 604 c 5
 565 545 650 480 650 313 c 4
 650 272 642 230 626 187 c 4
 626 186 l 4
 626 185 626 184 628 184 c 4
 631 184 676 203 678 203 c 4
 679 203 679 203 679 202 c 4
 679 202 679 201 679 200 c 4
 651 140 615 92 571 57 c 4
 530 24 431 -33 342 -33 c 260
351 669 m 260
 394 669 439 660 485 643 c 5
 474 646 463 647 450 647 c 4
 298 647 217 545 168 411 c 4
 147 353 136 301 136 254 c 4
 136 139 185 94 288 32 c 5
 126 90 44 153 41 316 c 4
 41 359 49 403 66 448 c 4
 66 449 l 4
 66 450 65 451 63 451 c 260
 61 451 16 432 14 432 c 4
 13 432 12 432 12 433 c 4
 12 433 12 434 13 435 c 4
 66 552 179 669 351 669 c 260
EndSplineSet
Validated: 5
EndChar

StartChar: P
Encoding: 80 80 39
Width: 569
Flags: W
HStem: 0 21G<113 378> 667 43<198.071 363.813>
VStem: 113 82<41.4043 276 384 660.141> 404 104<446.96 522.969>
LayerCount: 2
Back
Fore
SplineSet
195 280 m 1
 195 114 l 2
 195 79.3333333333 202.666666667 54.6666666667 218 40 c 0
 230.832155958 27.1678440421 352.96768413 2.34677961277 378 0 c 1
 113 0 l 1
 113 276 l 1
 -13 276 l 1
 81 302.666666667 185.333333333 333.666666667 300 369 c 1
 351.907338156 390.234820155 404 453.940295384 404 524 c 0
 404 635.31491943 373.405162555 667 263 667 c 0
 216.039846388 667 195 660 195 629 c 2
 195 384 l 1
 113 362 l 1
 113 592 l 1
 109.775386488 608.123067559 101.318272012 661 89 661 c 0
 80.4870296811 661 58.6228131519 608.651329592 53 596 c 1
 4 720 l 1
 58 683 l 1
 188 710 l 1
 340 710 l 2
 446.396735228 710 535.915577722 596.538420616 549 499 c 1
 546.333333333 499 543.666666667 499.333333333 541 500 c 0
 535.666666667 504.666666667 529.833333333 509.666666667 523.5 515 c 0
 517.166666667 520.333333333 512.666666667 523 510 523 c 0
 508.666666667 522.333333333 508 521.333333333 508 520 c 0
 508 414 443.666666667 341 315 301 c 1
 195 280 l 1
EndSplineSet
Validated: 524289
EndChar

StartChar: Q
Encoding: 81 81 40
Width: 713
Flags: W
HStem: 36 38<266.53 278.219> 354 324<25 355>
VStem: 27 109<223.323 353.999> 534 109<296.001 433.829>
LayerCount: 2
Back
Fore
SplineSet
457 48 m 5
 418 -3 368 -21 315 -28 c 5
 387 -28 455 -19 503 12 c 5
 668 -77 l 5
 554 59 l 5
 632 141 678 199 688 329 c 4
 689 330 688 331 687 331 c 4
 686 331 646 296 645 296 c 4
 644 296 643 297 643 298 c 4
 643 508 528 614 292 614 c 5
 471 578 534 499 534 298 c 4
 534 241 534 208 533 197 c 4
 531 164 525 137 514 116 c 5
 378 274 l 5
 238 91 l 5
 163 129 136 235 136 352 c 4
 136 449 156 523 196 576 c 4
 247 644 300 678 355 678 c 5
 136 678 -3 516 -18 321 c 4
 -18 320 -18 319 -17 319 c 4
 -16 319 24 354 25 354 c 4
 26 354 27 353 27 352 c 4
 27 255 57 175 116 113 c 4
 165 62 252 36 378 36 c 5
 335 45 297 57 264 74 c 5
 329 125 l 5
 457 48 l 5
EndSplineSet
Validated: 9
EndChar

StartChar: R
Encoding: 82 82 41
Width: 763
Flags: HW
LayerCount: 2
Back
Fore
SplineSet
268 292 m 5
 189 278 l 5
 189 112 l 6
 189 77 196 53 211 38 c 4
 224 25 346 0 372 -2 c 5
 106 -2 l 5
 106 274 l 5
 -19 274 l 5
 95 307 220 345 356 387 c 5
 413 410 442 454 442 519 c 4
 442 616 380 665 257 665 c 4
 228 665 209 663 201 658 c 132
 193 653 189 642 189 627 c 6
 189 382 l 5
 110 360 l 5
 110 590 l 5
 107 603 103 617 100 631 c 4
 94 649 88 658 83 658 c 4
 73 658 46 594 46 594 c 5
 -3 718 l 5
 52 681 l 5
 182 708 l 5
 397 708 l 6
 503 708 588 595 601 497 c 5
 599 497 597 497 594 498 c 4
 589 503 583 508 576 513 c 132
 569 518 565 521 563 521 c 4
 562 520 561 519 561 518 c 4
 561 395 491 349 386 317 c 5
 588 67 l 6
 607 44 700 2 741 -2 c 5
 504 -2 l 5
 268 292 l 5
EndSplineSet
Validated: 1
EndChar

StartChar: S
Encoding: 83 83 42
Width: 575
Flags: W
HStem: -33 50<205.829 359.916> 651 53<190.8 351.513> 694 9<330.084 382.038> 703 8<328.375 338>
VStem: 55 90<-19 -5.45161 487.379 605.816> 399 109<78.0995 226.133>
LayerCount: 2
Back
Fore
SplineSet
343 384 m 2x8c
 399 361 508 268 508 165 c 0
 508 45 405 -33 282 -33 c 0
 220 -33 164 -8 114 41 c 1
 140 -19 l 1
 56 -19 l 1
 9 293 l 1
 46 193 161 17 278 17 c 0
 359 17 399 54 399 129 c 0
 399 186 378 241 337 296 c 2
 238 428 l 1
 343 384 l 2x8c
166 351 m 2
 92 382 55 437 55 516 c 0
 55 629 139 704 252 704 c 0xcc
 286 704 318 692 398 668 c 0
 405 666 411 665 415 665 c 0
 422 665 426 668 426 674 c 0
 426 684 412 691 379 694 c 0xac
 360 697 338 700 313 703 c 1
 436 711 l 1x9c
 464 675 l 1
 499 359 l 1
 485 418 409 591 374 619 c 0
 348 640 311 651 274 651 c 0xcc
 209 651 145 618 145 551 c 0
 145 530 154 506 171 480 c 0
 185 461 199 443 212 424 c 2
 310 290 l 1
 166 351 l 2
EndSplineSet
Validated: 1
EndChar

StartChar: T
Encoding: 84 84 43
Width: 653
Flags: W
HStem: -1 0 669 40<83.7191 213.891 383.625 521.288>
VStem: 1 19<474.263 562.547> 248 102<39.5713 110> 584 19<475.737 559.471>
LayerCount: 2
Back
Fore
SplineSet
248 110 m 6
 248 75 243 51 232 39 c 4
 218 25 48 -1 48 -1 c 5
 560 -1 l 21
 550 1 388 23 374 37 c 4
 359 52 350 75 350 110 c 6
 350 450 l 5
 306 318 l 5
 248 450 l 5
 248 110 l 6
248 633 m 5
 189 661 l 6
 176 666 162 669 149 669 c 4
 73 669 36 611 20 524 c 5
 1 389 l 5
 1 709 l 5
 603 709 l 5
 603 393 l 5
 584 524 l 5
 564 613 536 668 454 668 c 4
 441 668 427 666 414 661 c 6
 342 633 l 5
 363 583 l 5
 302 382 l 5
 230 579 l 5
 248 633 l 5
EndSplineSet
Validated: 9
EndChar

StartChar: U
Encoding: 85 85 44
Width: 776
Flags: W
HStem: -38 48<365.642 526.18> 683 7<465 484.285>
VStem: 157 131<95.8635 633.342> 625 60<111.282 639.348>
LayerCount: 2
Back
Fore
SplineSet
288 687 m 5
 288 207 l 6
 288 87 341 10 451 10 c 4
 520 10 578 56 625 147 c 5
 624 531 l 6
 623 587 616 624 602 641 c 5
 581 658 536 672 465 683 c 5
 465 690 l 5
 685 690 l 5
 685 -16 l 6
 685 -24 682 -33 675 -33 c 4
 664 -33 649 -2 623 61 c 5
 573 -5 533 -38 427 -38 c 4
 336 -38 268 -18 225 23 c 4
 180 64 157 130 157 220 c 6
 157 552 l 5
 148 607 139 635 132 635 c 4
 125 635 96 571 96 571 c 29
 47 695 l 5
 102 658 l 5
 196 687 l 5
 288 687 l 5
EndSplineSet
Validated: 1
EndChar

StartChar: V
Encoding: 86 86 45
Width: 676
Flags: HW
LayerCount: 2
Back
Fore
SplineSet
428 690 m 5
 477 566 l 5
 477 566 503 632 516 632 c 4
 527 632 532 597 532 580 c 4
 532 553 527 521 518 496 c 6
 408 173 l 5
 441 89 l 5
 677 714 l 5
 478 655 l 5
 428 690 l 5
-19 683 m 5
 30 559 l 5
 30 559 45 606 54 606 c 4
 66 606 88 553 96 537 c 6
 292 89 l 5
 412 -38 l 5
 575 82 l 5
 434 38 l 5
 143 692 l 5
 36 646 l 5
 -19 683 l 5
EndSplineSet
Validated: 9
EndChar

StartChar: W
Encoding: 87 87 46
Width: 962
Flags: W
HStem: 677 10<664.705 723.721> 725 20G<862.043 887>
VStem: 195 328<582.5 683>
LayerCount: 2
Back
Fore
SplineSet
-31 691 m 5
 23 571 l 5
 23 571 34 607 44 607 c 4
 53 607 63 591 74 559 c 6
 259 57 l 5
 412 -30 l 5
 126 709 l 5
 27 651 l 5
 -31 691 l 5
376 157 m 5
 267 414 l 5
 287 387 327 323 360 323 c 4
 399 323 413 387 444 483 c 5
 394 611 l 6
 386 630 360 645 317 654 c 4
 263 664 263 664 209 674 c 4
 200 676 195 679 195 682 c 4
 195 684 196 686 198 687 c 6
 721 687 l 5
 723 686 724 684 724 683 c 4
 724 680 718 678 707 677 c 4
 603 664 523 665 523 590 c 4
 523 575 527 558 535 539 c 6
 714 117 l 5
 714 -21 l 5
 598 95 l 5
 470 419 l 5
 376 157 l 5
982 723 m 5
 928 603 l 5
 928 606 921 644 906 644 c 4
 895 644 884 611 879 598 c 6
 728 186 l 5
 685 280 l 5
 870 745 l 5
 921 685 l 5
 982 723 l 5
EndSplineSet
Validated: 9
EndChar

StartChar: X
Encoding: 88 88 47
Width: 825
Flags: W
HStem: 0 4<305.504 317 792.561 812>
LayerCount: 2
Back
Fore
SplineSet
134 710 m 5
 41 671 l 5
 -13 708 l 5
 36 584 l 5
 36 584 61 650 75 650 c 4
 78 650 81 648 84 645 c 6
 299 376 l 5
 367 459 l 5
 182 709 l 5
 134 710 l 5
462 448 m 5
 175 97 l 6
 162 81 158 67 158 56 c 4
 158 43 167 33 185 26 c 4
 193 23 317 4 317 4 c 5
 317 0 l 5
 12 0 l 5
 462 448 l 5
812 0 m 5
 812 4 l 5
 751 9 706 19 679 32 c 5
 421 362 l 5
 353 280 l 5
 565 0 l 5
 812 0 l 5
661 676 m 5
 249 272 l 5
 507 588 l 6
 524 611 532 628 532 639 c 4
 532 641 531 643 529 643 c 4
 512 643 495 624 481 603 c 5
 426 715 l 5
 487 667 l 5
 541 723 l 5
 661 680 l 5
 661 676 l 5
EndSplineSet
Validated: 9
EndChar

StartChar: Y
Encoding: 89 89 48
Width: 770
Flags: W
HStem: 0 7<92 134.212 578.03 616> 713 4<385.651 391 794.038 825>
VStem: 308 94<53.043 129 289 292>
LayerCount: 2
Back
Fore
SplineSet
308 292 m 5
 308 129 l 6
 308 82 302 51 291 40 c 13
 92 7 l 5
 92 0 l 5
 616 0 l 5
 616 7 l 5
 437 40 l 5
 414 59 402 82 402 109 c 6
 402 289 l 5
 402 333 419 383 445 414 c 4
 507 492 543 537 554 550 c 4
 624 631 676 676 710 687 c 5
 825 713 l 5
 825 717 l 5
 588 717 l 5
 506 676 l 5
 444 737 l 5
 491 601 l 5
 491 601 533 632 540 632 c 4
 542 632 543 631 543 629 c 4
 543 613 514 577 502 565 c 6
 188 251 l 5
 308 292 l 5
125 717 m 5
 391 717 l 5
 391 713 l 5
 276 690 218 670 218 654 c 4
 218 643 224 629 237 610 c 6
 337 452 l 5
 249 365 l 5
 103 594 l 6
 84 625 70 641 63 641 c 4
 50 641 35 597 35 597 c 5
 -19 716 l 5
 39 677 l 5
 125 717 l 5
EndSplineSet
Validated: 9
EndChar

StartChar: Z
Encoding: 90 90 49
Width: 713
Flags: HW
HStem: 0 5<30 78.8088> 69 108<275.697 360.642> 560 108<348.357 433.303> 667 58<157.639 307.397>
VStem: 26 7<360 367.701> 265 107<79.9485 166.051> 337 107<570.949 657.302>
LayerCount: 2
Back
Fore
SplineSet
80 725 m 5xd8
 62 578 44 457 26 360 c 5
 33 360 l 5
 58 442 87 529 120 620 c 5
 139 643 183 659 252 667 c 6
 711 725 l 5
 80 725 l 5xd8
227 130 m 5
 597 589 l 5
 444 679 l 5xca
 485 600 l 5
 120 134 l 5
 267 48 l 5
 227 130 l 5
539 73 m 6
 559 76 607 147 682 288 c 5
 690 288 l 5
 597 0 l 5
 30 0 l 5
 26 5 l 5
 539 73 l 6
337 614 m 4
 337 644 360 668 390 668 c 4
 420 668 444 644 444 614 c 4
 444 584 420 560 390 560 c 4xea
 361 560 337 585 337 614 c 4
265 123 m 260xcc
 265 153 289 177 319 177 c 4
 348 177 372 152 372 123 c 260
 372 94 348 69 319 69 c 4
 289 69 265 93 265 123 c 260xcc
EndSplineSet
Validated: 9
EndChar

StartChar: backslash
Encoding: 92 92 50
Width: 397
Flags: HW
LayerCount: 2
Back
Fore
SplineSet
100 741 m 5
 117 706 146 631 187 516 c 4
 230 391 263 303 286 253 c 4
 325 166 359 117 390 106 c 5
 317 -53 l 5
 304 4 292 62 279 120 c 4
 246 253 212 360 176 442 c 4
 129 548 84 601 39 601 c 4
 36 601 32 601 29 600 c 5
 100 741 l 5
EndSplineSet
Validated: 1
EndChar

StartChar: a
Encoding: 97 97 51
Width: 541
Flags: HW
LayerCount: 2
Back
Fore
SplineSet
408 351 m 1
 408 131 l 2
 408 72.3333333333 412.666666667 43 422 43 c 0
 424.666666667 43 427.833333333 45.3333333333 431.5 50 c 128
 435.166666667 54.6666666667 437 91.6666666667 437 161 c 1
 474 54 l 1
 457.333333333 24 441 6 425 0 c 1
 248 0 l 1
 275.333333333 8.66666666667 294 19.6666666667 304 33 c 1
 304 319 l 1
 172 275.666666667 106 219 106 149 c 0
 106 77 162.333333333 41 275 41 c 1
 213.666666667 7 167.666666667 -10 137 -10 c 0
 105 -10 75.6666666667 3 49 29 c 0
 25 52.3333333333 13 81.6666666667 13 117 c 0
 13 173 40.6666666667 219.333333333 96 256 c 0
 112 266.666666667 167 292.333333333 261 333 c 0
 350.333333333 371 423.333333333 400.666666667 480 422 c 1
 454 401.333333333 439 389.333333333 435 386 c 0
 423.666666667 375.333333333 414.666666667 363.666666667 408 351 c 1
398 478 m 0
 374.666666667 520.666666667 322.333333333 542 241 542 c 0
 198.333333333 542 152.666666667 511.666666667 104 451 c 0
 100 446.333333333 94.6666666667 444 88 444 c 0
 76 444 64.6666666667 449.666666667 54 461 c 1
 54 461 54 461 54 316 c 1
 68 374.666666667 104.333333333 430.666666667 163 484 c 1
 188.333333333 500 205.666666667 508 215 508 c 0
 239.666666667 508 256.666666667 507 266 505 c 0
 280 501.666666667 290 494 296 482 c 0
 304 467.333333333 308.666666667 455 310 445 c 0
 310 440 310 440 310 404 c 1
 300.666666667 390.666666667 278.666666667 370.333333333 244 343 c 1
 410 415 l 1
 410 443 406 464 398 478 c 0
EndSplineSet
Validated: 524297
EndChar

StartChar: b
Encoding: 98 98 52
Width: 581
Flags: HW
LayerCount: 2
Back
Fore
SplineSet
184 762 m 2
 184 762.666666667 172.166666667 770 148.5 784 c 128
 124.833333333 798 113 805.333333333 113 806 c 1
 112.333333333 801.333333333 111 797.333333333 109 794 c 0
 103 784.666666667 92.3333333333 777.333333333 77 772 c 0
 67 768 45 761.333333333 11 752 c 1
 11 665 l 1
 36 735 l 1
 46 735 57.3333333333 728.166666667 70 714.5 c 128
 82.6666666667 700.833333333 89 691 89 685 c 2
 89 66 l 2
 89 58 81.6666666667 47 67 33 c 128
 52.3333333333 19 37 7.66666666667 21 -1 c 1
 288 -1 l 2
 338.666666667 -1 374.666666667 2 396 8 c 0
 432.666666667 17.3333333333 463 38.3333333333 487 71 c 0
 527 125 547 198 547 290 c 0
 547 358.666666667 527.666666667 416.333333333 489 463 c 0
 447 515 401.333333333 541 352 541 c 0
 328 541 302.166666667 533 274.5 517 c 128
 246.833333333 501 228 482.333333333 218 461 c 1
 218 306 l 1
 221.333333333 311.333333333 231 334.333333333 247 375 c 0
 258.333333333 403 269.333333333 420.666666667 280 428 c 0
 297.333333333 439.333333333 313.666666667 445 329 445 c 0
 357 445 385 425.333333333 413 386 c 0
 420.333333333 376 427.333333333 358.666666667 434 334 c 0
 442.666666667 302 447 269.333333333 447 236 c 0
 447 166 437 117 417 89 c 0
 395 57 356 41 300 41 c 2
 184 41 l 1
 184 762 l 2
EndSplineSet
Validated: 524297
EndChar

StartChar: c
Encoding: 99 99 53
Width: 522
Flags: HW
LayerCount: 2
Back
Fore
SplineSet
258 518 m 0
 297.333333333 518 339.333333333 502.666666667 384 472 c 0
 410 454 434.333333333 435 457 415 c 0
 458.333333333 413 459 410.333333333 459 407 c 0
 459 389 440.333333333 360 403 320 c 0
 375.666666667 291.333333333 347 265 317 241 c 0
 309 233.666666667 304.333333333 230 303 230 c 0
 302.333333333 230 302 230.333333333 302 231 c 0
 302 235 317.5 261.666666667 348.5 311 c 128
 379.5 360.333333333 394 387 392 391 c 2
 372 444 l 1
 324 464.666666667 283.333333333 475 250 475 c 0
 230.666666667 475 212.666666667 472 196 466 c 0
 166 454.666666667 145.666666667 444.666666667 135 436 c 0
 130.333333333 432 119.666666667 418.333333333 103 395 c 0
 90.3333333333 377.666666667 84 341.333333333 84 286 c 0
 84 250.666666667 85.6666666667 222.666666667 89 202 c 0
 93.6666666667 174.666666667 97 158.666666667 99 154 c 0
 105.666666667 132 117 113 133 97 c 0
 169.666666667 60.3333333333 215.333333333 42 270 42 c 0
 318.666666667 42 355.666666667 59.3333333333 381 94 c 0
 399 120.666666667 416.666666667 147.333333333 434 174 c 0
 465.333333333 219.333333333 483.666666667 242 489 242 c 0
 490.333333333 242 491 241.333333333 491 240 c 0
 491 236 488.666666667 228.666666667 484 218 c 2
 457 155 l 1
 397.666666667 31 321 -31 227 -31 c 0
 165 -31 113.333333333 -7.66666666667 72 39 c 0
 24 92.3333333333 1.33333333333 159.666666667 4 241 c 0
 4.66666666667 272.333333333 11.3333333333 306 24 342 c 0
 38 384 56.6666666667 418 80 444 c 0
 124 493.333333333 183.333333333 518 258 518 c 0
EndSplineSet
Validated: 524321
EndChar

StartChar: d
Encoding: 100 100 54
Width: 563
Flags: HW
LayerCount: 2
Back
Fore
SplineSet
509 393 m 1
 468 356 l 1
 468 2 l 1
 321 2 l 1
 345.666666667 8 369.333333333 23.3333333333 392 48 c 1
 392 376 l 2
 392 421.333333333 378.666666667 456.333333333 352 481 c 0
 331.333333333 500.333333333 307.333333333 510 280 510 c 0
 230.666666667 510 191 487 161 441 c 0
 134.333333333 400.333333333 121 350 121 290 c 0
 121 205.333333333 130.333333333 148.333333333 149 119 c 0
 164.333333333 96.3333333333 179 80.3333333333 193 71 c 0
 205 63.6666666667 222 58.3333333333 244 55 c 0
 282 48.3333333333 313 48.6666666667 337 56 c 1
 327.666666667 48.6666666667 310.333333333 37.3333333333 285 22 c 0
 257.666666667 5.33333333333 224.333333333 -3 185 -3 c 0
 177.666666667 -3 171 -2.66666666667 165 -2 c 0
 145.666666667 1.33333333333 130.666666667 6 120 12 c 0
 107.333333333 20 91.3333333333 36 72 60 c 0
 37.3333333333 101.333333333 20 162 20 242 c 0
 20 320 42 388.333333333 86 447 c 0
 134 512.333333333 195.666666667 545 271 545 c 0
 317 545 357.333333333 527.666666667 392 493 c 1
 392 676 l 2
 392 698.666666667 390 713.666666667 386 721 c 0
 380 732.333333333 367 738 347 738 c 0
 341.666666667 738 321 727.666666667 285 707 c 1
 310 745 l 1
 340 757 385 775.666666667 445 801 c 1
 498 725 l 1
 468 678 l 1
 468 434 l 1
 509 393 l 1
EndSplineSet
Validated: 524321
EndChar

StartChar: e
Encoding: 101 101 55
Width: 587
Flags: HW
LayerCount: 2
Back
Fore
SplineSet
199 372 m 1
 210.333333333 417.333333333 218.666666667 444.666666667 224 454 c 0
 233.333333333 472 250.333333333 484 275 490 c 0
 279.666666667 491.333333333 284.333333333 492 289 492 c 0
 317 492 343 470.333333333 367 427 c 0
 382.333333333 399.666666667 391.666666667 371 395 341 c 1
 258 340 l 2
 258 341.333333333 255 342 249 342 c 0
 235 342 196.666666667 338.666666667 134 332 c 0
 65.3333333333 324 23.3333333333 319.666666667 8 319 c 1
 -4 315.666666667 -10.3333333333 313.333333333 -11 312 c 1
 -11 313.333333333 0.666666666667 310.5 24 303.5 c 128
 47.3333333333 296.5 59 285 59 269 c 0
 59 229.666666667 64 190 74 150 c 0
 85.3333333333 107.333333333 100.333333333 73.6666666667 119 49 c 0
 161 -5.66666666667 216.333333333 -33 285 -33 c 0
 343.666666667 -33 396.666666667 -12.3333333333 444 29 c 0
 473.333333333 55 497.666666667 87 517 125 c 0
 527 145 542 182.333333333 562 237 c 0
 566.666666667 248.333333333 569 255.333333333 569 258 c 0
 569 259.333333333 568.666666667 260 568 260 c 0
 566.666666667 260 551.666666667 241 523 203 c 0
 489 157 458.333333333 121.333333333 431 96 c 0
 389.666666667 58 353 39 321 39 c 0
 275.666666667 39 237 58.3333333333 205 97 c 0
 167.666666667 142.333333333 147 207.666666667 143 293 c 1
 404 293 l 1
 479 249 l 1
 492.333333333 263 499 285.333333333 499 316 c 0
 499 342.666666667 494 370.5 484 399.5 c 128
 474 428.5 462.333333333 449.333333333 449 462 c 0
 410.333333333 500.666666667 362.666666667 520 306 520 c 0
 234.666666667 520 175.666666667 492.666666667 129 438 c 0
 109.666666667 414.666666667 93.3333333333 388.666666667 80 360 c 1
 199 372 l 1
EndSplineSet
Validated: 524325
EndChar

StartChar: f
Encoding: 102 102 56
Width: 461
Flags: HW
LayerCount: 2
Back
Fore
SplineSet
160 430 m 1
 13 430 l 1
 160 469 l 1
 160 590.333333333 174 670.666666667 202 710 c 0
 233.333333333 753.333333333 277.666666667 775 335 775 c 0
 355 775 380.333333333 762.333333333 411 737 c 0
 413 735.666666667 415 735 417 735 c 0
 421 735 424.833333333 738.833333333 428.5 746.5 c 128
 432.166666667 754.166666667 434.333333333 758 435 758 c 0
 439 758 440.666666667 730 440 674 c 0
 439.333333333 606 439 571.333333333 439 570 c 0
 439 564 438.333333333 560.666666667 437 560 c 0
 435 560 427.333333333 586.166666667 414 638.5 c 128
 400.666666667 690.833333333 390.666666667 719.333333333 384 724 c 0
 358.666666667 742 338.333333333 751 323 751 c 0
 299.666666667 751 280.333333333 741 265 721 c 128
 249.666666667 701 242 674.333333333 242 641 c 2
 242 469 l 1
 389 469 l 1
 243 430 l 1
 243 124 l 2
 243 80.6666666667 249 53 261 41 c 0
 264.333333333 37.6666666667 292.333333333 31.6666666667 345 23 c 128
 397.666666667 14.3333333333 424 8.66666666667 424 6 c 0
 424 4 420 2.66666666667 412 2 c 2
 160 2 l 1
 160 430 l 1
EndSplineSet
Validated: 524321
EndChar

StartChar: g
Encoding: 103 103 57
Width: 578
Flags: HW
LayerCount: 2
Back
Fore
SplineSet
274 -208 m 0
 159.333333333 -208 102 -175 102 -109 c 0
 102 -85.6666666667 109.333333333 -63 124 -41 c 0
 136 -23.6666666667 190.666666667 34 288 132 c 0
 304 147.333333333 312 156.333333333 312 159 c 0
 311.333333333 159.666666667 310.666666667 160 310 160 c 0
 308 160 301.333333333 156.333333333 290 149 c 2
 186 76 l 1
 156 76.6666666667 141 85 141 101 c 0
 141 113 149.166666667 127 165.5 143 c 128
 181.833333333 159 198.666666667 170.666666667 216 178 c 1
 225.333333333 175.333333333 236 174 248 174 c 0
 271.333333333 174 296.333333333 179.666666667 323 191 c 0
 347.666666667 201.666666667 368 214.666666667 384 230 c 0
 420 264.666666667 438 304.666666667 438 350 c 0
 438 363.333333333 434.666666667 381.333333333 428 404 c 1
 374 377 l 1
 376.666666667 367 378 357 378 347 c 0
 378 310.333333333 361.666666667 277.333333333 329 248 c 0
 299 221.333333333 274.333333333 210.666666667 255 216 c 0
 236.333333333 221.333333333 213.666666667 232.666666667 187 250 c 0
 158.333333333 269.333333333 144 296 144 330 c 0
 144 347.333333333 149 365.333333333 159 384 c 0
 188.333333333 437.333333333 240.666666667 464 316 464 c 0
 326 464 349.333333333 457.666666667 386 445 c 0
 421 433 421 433 456 421 c 1
 508 314 l 1
 523 450 l 1
 479 506 l 2
 479.666666667 505.333333333 480 500.666666667 480 492 c 0
 480.666666667 480 477 474 469 474 c 0
 463.666666667 474 446.666666667 480 418 492 c 0
 371.333333333 512 344.333333333 523.333333333 337 526 c 0
 309.666666667 535.333333333 282.666666667 540 256 540 c 0
 245.333333333 540 234.333333333 539.333333333 223 538 c 0
 171.666666667 532 129.666666667 512.666666667 97 480 c 0
 61.6666666667 445.333333333 44.6666666667 402.666666667 46 352 c 0
 47.3333333333 270.666666667 87.3333333333 217.666666667 166 193 c 1
 127.333333333 172.333333333 93.6666666667 146.333333333 65 115 c 0
 46.3333333333 95.6666666667 40.3333333333 77.3333333333 47 60 c 0
 55 38.6666666667 82.6666666667 18.6666666667 130 0 c 1
 93 -35 93 -35 56 -70 c 0
 30 -97.3333333333 16.3333333333 -127.333333333 15 -160 c 0
 13.6666666667 -188 33.3333333333 -214.333333333 74 -239 c 0
 120 -267 176.666666667 -281 244 -281 c 0
 300.666666667 -281 350.333333333 -271 393 -251 c 1
 412.333333333 -221.666666667 427.333333333 -183 438 -135 c 1
 424.666666667 -151 410 -167.666666667 394 -185 c 1
 328 -200.333333333 288 -208 274 -208 c 0
443 48 m 1
 474.333333333 38 496.666666667 27 510 15 c 0
 525.333333333 -0.333333333333 533 -22 533 -50 c 0
 533 -74.6666666667 519.5 -111.166666667 492.5 -159.5 c 128
 465.5 -207.833333333 437.666666667 -247 409 -277 c 1
 403 -276 l 1
 422.333333333 -254 440.333333333 -217 457 -165 c 0
 472.333333333 -119 480 -85.6666666667 480 -65 c 0
 480 -48.3333333333 462.666666667 -36.3333333333 428 -29 c 0
 397.333333333 -23 357.333333333 -18 308 -14 c 0
 246.666666667 -8.66666666667 206.666666667 -4.66666666667 188 -2 c 1
 256 74 l 1
 306.666666667 69.3333333333 369 60.6666666667 443 48 c 1
EndSplineSet
Validated: 524325
EndChar

StartChar: h
Encoding: 104 104 58
Width: 567
Flags: HW
LayerCount: 2
Back
Fore
SplineSet
120 299 m 1
 120 59 l 2
 120 51.6666666667 104.5 41.1666666667 73.5 27.5 c 128
 42.5 13.8333333333 18.3333333333 6 1 4 c 1
 6 0 l 1
 203 0 l 1
 203 356 l 1
 219 368.666666667 234.666666667 381 250 393 c 0
 268 406.333333333 286 413.666666667 304 415 c 0
 346.666666667 417.666666667 368 388.666666667 368 328 c 2
 368 0 l 1
 562 0 l 1
 565 4 l 1
 547.666666667 8.66666666667 525.333333333 17.3333333333 498 30 c 128
 470.666666667 42.6666666667 455 52 451 58 c 1
 451 326 l 2
 451 380 443 423 427 455 c 0
 409 490.333333333 384 508 352 508 c 0
 326 508 296.666666667 496.666666667 264 474 c 0
 256 468.666666667 218.666666667 431 152 361 c 0
 90 295.666666667 51.3333333333 254.333333333 36 237 c 1
 36 233 l 1
 52 245.666666667 80 267.666666667 120 299 c 1
189 786 m 1
 16 697 l 1
 32.6666666667 696.333333333 49.3333333333 695.333333333 66 694 c 0
 86.6666666667 692 100.833333333 687.333333333 108.5 680 c 128
 116.166666667 672.666666667 120 653.333333333 120 622 c 2
 120 368 l 1
 201 445 l 1
 201 725 l 1
 243 701 l 1
 189 786 l 1
EndSplineSet
Validated: 524329
EndChar

StartChar: i
Encoding: 105 105 59
Width: 382
Flags: HW
LayerCount: 2
Back
Fore
SplineSet
73 441 m 1
 107 455 162.333333333 476 239 504 c 1
 295 461 l 1
 273.666666667 436.333333333 263 423 263 421 c 2
 263 127 l 2
 263 83 269 54.3333333333 281 41 c 0
 286.333333333 35 299.5 27.5 320.5 18.5 c 128
 341.5 9.5 360.666666667 4.33333333333 378 3 c 1
 373 0 l 1
 55 0 l 1
 52 3 l 1
 72 5 94.8333333333 10.5 120.5 19.5 c 128
 146.166666667 28.5 161.666666667 35.6666666667 167 41 c 0
 177 51.6666666667 182 79 182 123 c 2
 182 367 l 2
 182 391.666666667 180.666666667 408.333333333 178 417 c 0
 172.666666667 434.333333333 160.333333333 443 141 443 c 1
 141 443 141 443 114 438.5 c 128
 96 435.5 83.6666666667 434 77 434 c 1
 73 441 l 1
256 527 m 1
 226.666666667 542.333333333 213.333333333 561 216 583 c 1
 198.666666667 578.333333333 184.333333333 560.333333333 173 529 c 1
 170.333333333 539 169 548 169 556 c 0
 169 573.333333333 174.333333333 587 185 597 c 1
 175 600.333333333 166.666666667 602 160 602 c 0
 149.333333333 602 135 597.666666667 117 589 c 1
 129 611 147.666666667 624.333333333 173 629 c 1
 164.333333333 645.666666667 156.666666667 656.5 150 661.5 c 128
 143.333333333 666.5 133 669.666666667 119 671 c 1
 130.333333333 677 139.666666667 680 147 680 c 0
 157.666666667 680 171 673 187 659 c 1
 191 672.333333333 193 683 193 691 c 0
 193 703.666666667 188.333333333 716 179 728 c 1
 206.333333333 714 219.333333333 695.333333333 218 672 c 1
 239.333333333 685.333333333 253.666666667 703.333333333 261 726 c 1
 264.333333333 717.333333333 266 708.333333333 266 699 c 0
 266 683 260.333333333 669.333333333 249 658 c 1
 256.333333333 653.333333333 264.666666667 651 274 651 c 0
 288 651 302.666666667 656 318 666 c 1
 304 639.333333333 285 626 261 626 c 1
 267.666666667 608.666666667 285.666666667 594.666666667 315 584 c 1
 303 581.333333333 293 580 285 580 c 0
 268.333333333 580 256 585.333333333 248 596 c 1
 244.666666667 590 243 583 243 575 c 0
 243 565.666666667 247.333333333 549.666666667 256 527 c 1
EndSplineSet
Validated: 524321
EndChar

StartChar: j
Encoding: 106 106 60
Width: 330
Flags: HW
LayerCount: 2
Back
Fore
SplineSet
11 -27 m 1
 22.3333333333 -56.3333333333 40.3333333333 -95.6666666667 65 -145 c 1
 85.6666666667 -173 104.666666667 -187 122 -187 c 0
 134 -187 142.833333333 -177.333333333 148.5 -158 c 128
 154.166666667 -138.666666667 157.333333333 -113 158 -81 c 1
 158 -81.6666666667 158 66.3333333333 158 363 c 0
 158 387.666666667 154.333333333 407.333333333 147 422 c 0
 141.666666667 434 123.666666667 440 93 440 c 0
 67.6666666667 440 45.3333333333 437.333333333 26 432 c 1
 21 434 l 1
 293 532 l 2
 292.333333333 532.666666667 282.666666667 524 264 506 c 128
 245.333333333 488 236 473.333333333 236 462 c 0
 236 451.333333333 244 443.666666667 260 439 c 1
 250 411.666666667 240.666666667 383.666666667 232 355 c 1
 232 -27 l 2
 232 -67 228.333333333 -108 221 -150 c 0
 211.666666667 -200.666666667 199.666666667 -231.666666667 185 -243 c 0
 162.333333333 -261.666666667 141.333333333 -271 122 -271 c 0
 96 -271 77 -251.666666667 65 -213 c 1
 61.6666666667 -221 58 -236.666666667 54 -260 c 128
 50 -283.333333333 43.3333333333 -303 34 -319 c 1
 34.6666666667 -311.666666667 31 -262.166666667 23 -170.5 c 128
 15 -78.8333333333 11 -31 11 -27 c 1
222 526 m 1
 193.333333333 541.333333333 180.333333333 560 183 582 c 1
 165.666666667 577.333333333 151.333333333 559.333333333 140 528 c 1
 137.333333333 538 136 547 136 555 c 0
 136 572.333333333 141.333333333 586 152 596 c 1
 142 599.333333333 133.333333333 601 126 601 c 0
 116 601 102 596.666666667 84 588 c 1
 96 610 114.666666667 623.333333333 140 628 c 1
 131.333333333 644.666666667 123.666666667 655.5 117 660.5 c 128
 110.333333333 665.5 100 668.666666667 86 670 c 1
 97.3333333333 676 106.666666667 679 114 679 c 0
 124.666666667 679 138 672 154 658 c 1
 157.333333333 671.333333333 159 682 159 690 c 0
 159 702.666666667 154.333333333 715 145 727 c 1
 172.333333333 713 185.666666667 694 185 670 c 1
 206.333333333 683.333333333 220.666666667 701.666666667 228 725 c 1
 231.333333333 716.333333333 233 707.333333333 233 698 c 0
 233 681.333333333 227.333333333 667.666666667 216 657 c 1
 223.333333333 652.333333333 231.666666667 650 241 650 c 0
 254.333333333 650 268.666666667 655 284 665 c 1
 270.666666667 638.333333333 252 625 228 625 c 1
 234.666666667 607.666666667 252.666666667 593.666666667 282 583 c 1
 270 580.333333333 260 579 252 579 c 0
 235.333333333 579 222.666666667 584 214 594 c 1
 211.333333333 588 210 581.333333333 210 574 c 0
 210 564.666666667 214 548.666666667 222 526 c 1
EndSplineSet
Validated: 524325
EndChar

StartChar: k
Encoding: 107 107 61
Width: 692
Flags: HW
LayerCount: 2
Back
Fore
SplineSet
711 0 m 2
 712.333333333 0.666666666667 713 1.33333333333 713 2 c 0
 713 4 693.666666667 10.6666666667 655 22 c 0
 613 34 587.333333333 44 578 52 c 0
 543.333333333 81.3333333333 462.333333333 154.333333333 335 271 c 1
 171 194 l 1
 171 0 l 1
 407 0 l 1
 409.666666667 4 393.666666667 9 359 15 c 0
 319 22.3333333333 298 26.3333333333 296 27 c 0
 272 37.6666666667 260 56 260 82 c 2
 261 214 l 1
 510 0 l 1
 711 0 l 2
470 460 m 1
 494.666666667 474.666666667 522 482 552 482 c 0
 584 482 611.666666667 472 635 452 c 1
 581 513 l 1
 409 512 l 1
 398 499 l 1
 407.333333333 497.666666667 416.666666667 495.5 426 492.5 c 128
 435.333333333 489.5 440 482.666666667 440 472 c 0
 440 458.666666667 435.333333333 448.666666667 426 442 c 2
 103 194 l 2
 99.6666666667 190.666666667 98 187.666666667 98 185 c 0
 98 183 99 182 101 182 c 0
 104.333333333 182 110.666666667 184.666666667 120 190 c 2
 396 334 l 1
 410.666666667 349.333333333 435.333333333 374 470 408 c 1
 469.333333333 420.666666667 469.333333333 438 470 460 c 1
171 645 m 2
 171 667 168 682.666666667 162 692 c 0
 154 702.666666667 139 708 117 708 c 0
 115.666666667 708 92.6666666667 704 48 696 c 0
 6.66666666667 688.666666667 -14 686.333333333 -14 689 c 0
 -14 689.666666667 -13 690.666666667 -11 692 c 2
 303 793 l 2
 305.666666667 791.666666667 299.333333333 779.833333333 284 757.5 c 128
 268.666666667 735.166666667 261 723.333333333 261 722 c 2
 261 346 l 1
 171 283 l 1
 171 645 l 2
EndSplineSet
Validated: 524329
EndChar

StartChar: l
Encoding: 108 108 62
Width: 302
Flags: HW
LayerCount: 2
Back
Fore
SplineSet
104 609 m 2
 104 635 102.333333333 652.333333333 99 661 c 0
 93 676.333333333 80 684 60 684 c 0
 52 684 40.8333333333 682.666666667 26.5 680 c 128
 12.1666666667 677.333333333 2.66666666667 675.666666667 -2 675 c 1
 -5 683 l 1
 28.3333333333 697 83.6666666667 718 161 746 c 1
 216 702 l 1
 184 663 l 1
 184 140 l 2
 184 86 184 86 184 83 c 0
 186.666666667 57 194 40.6666666667 206 34 c 0
 212 30 231.666666667 24 265 16 c 0
 286.333333333 10.6666666667 297 5.66666666667 297 1 c 0
 297 0.333333333333 296.666666667 0 296 0 c 2
 133 0 l 1
 75 46 l 1
 104 84 l 1
 104 609 l 2
EndSplineSet
Validated: 524289
EndChar

StartChar: m
Encoding: 109 109 63
Width: 987
Flags: HW
LayerCount: 2
Back
Fore
SplineSet
715 460 m 0
 756.333333333 460 784.333333333 444.333333333 799 413 c 0
 807.666666667 394.333333333 812 367 812 331 c 2
 812 98 l 2
 812 66.6666666667 806.666666667 46 796 36 c 0
 793.333333333 32.6666666667 773.333333333 26.6666666667 736 18 c 0
 702 9.33333333333 687 3.33333333333 691 0 c 1
 904 0 l 1
 904 311 l 2
 904 354.333333333 903.333333333 381.333333333 902 392 c 0
 900 416.666666667 895 434.666666667 887 446 c 0
 849.666666667 497.333333333 800 523 738 523 c 0
 696.666666667 523 662.666666667 514 636 496 c 0
 605.333333333 474.666666667 590 451.333333333 590 426 c 0
 590 399.333333333 602.333333333 367 627 329 c 1
 623 369 626.666666667 398.333333333 638 417 c 0
 656.666666667 445.666666667 682.333333333 460 715 460 c 0
454 521 m 0
 407.333333333 523.666666667 366.333333333 512.833333333 331 488.5 c 128
 295.666666667 464.166666667 278 433.666666667 278 397 c 0
 278 374.333333333 285.666666667 351.333333333 301 328 c 1
 299.666666667 363.333333333 310.666666667 394.666666667 334 422 c 0
 355.333333333 447.333333333 378.333333333 460 403 460 c 0
 445 460 472.333333333 441.333333333 485 404 c 0
 491.666666667 382.666666667 495 356.333333333 495 325 c 2
 495 99 l 2
 495 77 494 62.6666666667 492 56 c 0
 488 51.3333333333 484.5 46.6666666667 481.5 42 c 128
 478.5 37.3333333333 456 29.6666666667 414 19 c 0
 376 9.66666666667 358.333333333 3.33333333333 361 0 c 1
 588 0 l 1
 588 378 l 1
 576.666666667 470 532 517.666666667 454 521 c 0
267 521 m 1
 227.666666667 507 157 482.333333333 55 447 c 0
 53 444.333333333 57.6666666667 443 69 443 c 0
 76.3333333333 443 87.8333333333 443.5 103.5 444.5 c 128
 119.166666667 445.5 127.666666667 446 129 446 c 0
 149.666666667 446 163.333333333 439.333333333 170 426 c 0
 174.666666667 416.666666667 177 400.333333333 177 377 c 2
 177 96 l 2
 177 62 169.666666667 39.3333333333 155 28 c 0
 153 26.6666666667 135.333333333 22.3333333333 102 15 c 0
 72.6666666667 9 59 4 61 0 c 1
 267 0 l 1
 267 521 l 1
EndSplineSet
Validated: 524325
EndChar

StartChar: n
Encoding: 110 110 64
Width: 680
Flags: HW
LayerCount: 2
Back
Fore
SplineSet
463 521 m 0
 449.666666667 523.666666667 436.333333333 525 423 525 c 0
 381.666666667 525 348.333333333 513.666666667 323 491 c 128
 297.666666667 468.333333333 285 440.333333333 285 407 c 0
 285 380.333333333 293.333333333 353.666666667 310 327 c 1
 308.666666667 363 319.666666667 394.333333333 343 421 c 0
 364.333333333 447 387.333333333 460 412 460 c 0
 454 460 481.333333333 441 494 403 c 0
 501.333333333 381.666666667 505 355.666666667 505 325 c 2
 505 103 l 2
 505 81 503.5 67.1666666667 500.5 61.5 c 128
 497.5 55.8333333333 494.333333333 50.6666666667 491 46 c 128
 487.666666667 41.3333333333 465 33 423 21 c 0
 385 10.3333333333 367.333333333 3.33333333333 370 0 c 1
 597 0 l 1
 597 378 l 1
 587 459.333333333 542.333333333 507 463 521 c 0
267 521 m 1
 227.666666667 507 157 482.333333333 55 447 c 0
 53 444.333333333 57.6666666667 443 69 443 c 0
 76.3333333333 443 87.8333333333 443.5 103.5 444.5 c 128
 119.166666667 445.5 127.666666667 446 129 446 c 0
 149.666666667 446 163.333333333 439.333333333 170 426 c 0
 174.666666667 416.666666667 177 400.333333333 177 377 c 2
 177 96 l 2
 177 62 169.666666667 39.3333333333 155 28 c 0
 153 26.6666666667 135.333333333 22.3333333333 102 15 c 0
 72.6666666667 9 59 4 61 0 c 1
 267 0 l 1
 267 521 l 1
EndSplineSet
Validated: 524329
EndChar

StartChar: o
Encoding: 111 111 65
Width: 522
Flags: HW
LayerCount: 2
Back
Fore
SplineSet
348 421 m 0
 367.333333333 401.666666667 379.666666667 386.666666667 385 376 c 0
 391.666666667 362.666666667 397.666666667 340 403 308 c 0
 406.333333333 288.666666667 408 269 408 249 c 0
 408 203.666666667 399.666666667 157.666666667 383 111 c 0
 362.333333333 54.3333333333 333.666666667 12.3333333333 297 -15 c 0
 285 -23.6666666667 262 -32.6666666667 228 -42 c 0
 198.666666667 -49.3333333333 184 -54 184 -56 c 0
 184 -56.6666666667 185 -57.3333333333 187 -58 c 0
 227.666666667 -70.6666666667 260.666666667 -77 286 -77 c 0
 313.333333333 -77 339.333333333 -70.6666666667 364 -58 c 0
 428 -26 473 26.3333333333 499 99 c 0
 513 136.333333333 520 172.666666667 520 208 c 0
 520 245.333333333 512.333333333 281.333333333 497 316 c 0
 467 386 417.333333333 433.666666667 348 459 c 0
 338 463 311.333333333 462.333333333 268 457 c 0
 267.333333333 457 266.666666667 456.666666667 266 456 c 1
 266 456.666666667 276 454 296 448 c 0
 318.666666667 441.333333333 336 432.333333333 348 421 c 0
176 28 m 0
 156.666666667 47.3333333333 144.333333333 62.3333333333 139 73 c 0
 131.666666667 86.3333333333 125.333333333 109 120 141 c 0
 116.666666667 160.333333333 115 180 115 200 c 0
 115 245.333333333 123.333333333 291 140 337 c 0
 160.666666667 393.666666667 189.666666667 436 227 464 c 0
 239 472.666666667 261.666666667 481.333333333 295 490 c 0
 325 498 340 503 340 505 c 0
 339.333333333 505.666666667 338.333333333 506.333333333 337 507 c 0
 295.666666667 519 262.333333333 525 237 525 c 0
 209.666666667 525 184 519 160 507 c 0
 96 474.333333333 50.6666666667 422 24 350 c 0
 10.6666666667 312.666666667 4 276.333333333 4 241 c 0
 4 203.666666667 11.6666666667 167.333333333 27 132 c 0
 57 62 106.666666667 14.6666666667 176 -10 c 0
 186 -14 212.333333333 -13.6666666667 255 -9 c 0
 256.333333333 -8.33333333333 257 -7.66666666667 257 -7 c 1
 257 -7.66666666667 247 -5 227 1 c 0
 205 7 188 16 176 28 c 0
EndSplineSet
Validated: 524325
EndChar

StartChar: p
Encoding: 112 112 66
Width: 605
Flags: HW
LayerCount: 2
Back
Fore
SplineSet
171 368 m 1
 168.333333333 365.333333333 163.333333333 357.333333333 156 344 c 0
 138.666666667 315.333333333 119.666666667 280 99 238 c 0
 91 220.666666667 87 210 87 206 c 0
 87 204.666666667 87.3333333333 204 88 204 c 0
 91.3333333333 204 118.666666667 237.333333333 170 304 c 0
 224 374 259.666666667 413.333333333 277 422 c 0
 303 435.333333333 321.666666667 442 333 442 c 0
 368.333333333 442 397.333333333 427.333333333 420 398 c 0
 439.333333333 373.333333333 451 342.333333333 455 305 c 0
 457 287.666666667 458 267.333333333 458 244 c 0
 458 214.666666667 454.333333333 184.333333333 447 153 c 0
 441 127 434.666666667 108.666666667 428 98 c 0
 413.333333333 74.6666666667 403.666666667 60.3333333333 399 55 c 0
 389 45.6666666667 375.666666667 41 359 41 c 0
 301.666666667 41 264 65.3333333333 246 114 c 1
 246 365 l 1
 171 281 l 1
 171 -119 l 1
 246 -273 l 1
 246 55 l 1
 276 23 313.666666667 7 359 7 c 0
 395 7 420.666666667 9.66666666667 436 15 c 0
 458.666666667 23.6666666667 478.333333333 42 495 70 c 0
 527.666666667 126 544 197 544 283 c 0
 544 343 524.666666667 397.333333333 486 446 c 0
 453.333333333 487.333333333 410.333333333 508 357 508 c 0
 320.333333333 508 283.333333333 489.666666667 246 453 c 1
 246 453 246 453 246 521 c 1
 212 505 l 2
 208.666666667 503 186.666666667 503 146 505 c 1
 133.333333333 497 121.5 488.333333333 110.5 479 c 128
 94 465 94 465 94 465 c 2
 95.3333333333 463 106.666666667 460.833333333 128 458.5 c 128
 149.333333333 456.166666667 163.666666667 446.333333333 171 429 c 0
 171 424 171 424 171 388 c 0
 171 376 171 376 171 368 c 1
156 -36 m 1
 150 -52 144.333333333 -67.6666666667 139 -83 c 128
 133.666666667 -98.3333333333 131 -112 131 -124 c 0
 131 -131.333333333 131.666666667 -138.666666667 133 -146 c 0
 135 -160 139.166666667 -173.333333333 145.5 -186 c 128
 151.833333333 -198.666666667 162.666666667 -211 178 -223 c 0
 188 -231.666666667 198 -240 208 -248 c 1
 202.666666667 -250 196.666666667 -251 190 -251 c 0
 166 -251 138.333333333 -239.666666667 107 -217 c 1
 87.6666666667 -195 78 -171.666666667 78 -147 c 0
 78 -136.333333333 79.6666666667 -125 83 -113 c 0
 93.6666666667 -74.3333333333 118 -48.6666666667 156 -36 c 1
EndSplineSet
Validated: 524329
EndChar

StartChar: q
Encoding: 113 113 67
Width: 600
Flags: HW
LayerCount: 2
Back
Fore
SplineSet
452 368 m 0
 454 365.333333333 459 357.333333333 467 344 c 0
 483.666666667 315.333333333 502.333333333 280 523 238 c 0
 531 220.666666667 535 210 535 206 c 0
 535 204.666666667 534.666666667 204 534 204 c 0
 531.333333333 204 504 237.333333333 452 304 c 0
 398 374 362.333333333 413.333333333 345 422 c 0
 319.666666667 435.333333333 301 442 289 442 c 0
 253.666666667 442 224.666666667 427.333333333 202 398 c 0
 182.666666667 373.333333333 171 342.333333333 167 305 c 0
 165 287.666666667 164 267.333333333 164 244 c 0
 164 214.666666667 167.666666667 184.333333333 175 153 c 0
 181.666666667 127 188.333333333 108.666666667 195 98 c 0
 209 74.6666666667 218.666666667 60.3333333333 224 55 c 0
 233.333333333 45.6666666667 246.666666667 41 264 41 c 0
 321.333333333 41 359 65.3333333333 377 114 c 1
 377 365 l 1
 452 281 l 1
 452 -119 l 1
 440.666666667 -150.333333333 429 -182 417 -214 c 0
 398.333333333 -264 386.333333333 -289 381 -289 c 0
 378.333333333 -289 377 -283.666666667 377 -273 c 2
 377 55 l 1
 347 23 309 7 263 7 c 0
 227 7 201.333333333 9.66666666667 186 15 c 0
 163.333333333 23.6666666667 144 42 128 70 c 0
 94.6666666667 126 78 197 78 283 c 0
 78 343 97.3333333333 397.333333333 136 446 c 0
 168.666666667 487.333333333 212 508 266 508 c 0
 302.666666667 508 339.666666667 489.666666667 377 453 c 1
 377 453 377 453 377 521 c 1
 410 505 l 2
 413.333333333 503 435.666666667 503 477 505 c 1
 489 497 501.333333333 488 514 478 c 0
 529 465 529 465 529 465 c 1
 527 463 515.5 460.833333333 494.5 458.5 c 128
 473.5 456.166666667 459.333333333 446.333333333 452 429 c 0
 452 424 452 424 452 388 c 0
 451.333333333 380 451.333333333 373.333333333 452 368 c 0
466 -36 m 1
 472 -52 477.833333333 -67.6666666667 483.5 -83 c 128
 489.166666667 -98.3333333333 492 -112 492 -124 c 0
 492 -131.333333333 491.333333333 -138.666666667 490 -146 c 0
 487.333333333 -160 483 -173.333333333 477 -186 c 128
 471 -198.666666667 460.333333333 -211 445 -223 c 0
 435 -231.666666667 424.666666667 -240 414 -248 c 1
 420 -250 426.333333333 -251 433 -251 c 0
 457 -251 484.666666667 -239.666666667 516 -217 c 1
 534.666666667 -195 544 -171.666666667 544 -147 c 0
 544 -136.333333333 542.333333333 -125 539 -113 c 0
 529 -74.3333333333 504.666666667 -48.6666666667 466 -36 c 1
EndSplineSet
Validated: 524329
EndChar

StartChar: r
Encoding: 114 114 68
Width: 439
Flags: HW
LayerCount: 2
Back
Fore
SplineSet
102 341 m 2
 102 372.333333333 100 394.333333333 96 407 c 0
 89.3333333333 433 74.6666666667 446.333333333 52 447 c 0
 42 447.666666667 30 445.333333333 16 440 c 0
 6 436.666666667 1 436 1 438 c 0
 1 439.333333333 2 442 4 446 c 2
 25 478 l 1
 83 491 l 1
 125 491 l 1
 133.666666667 497 149 508.333333333 171 525 c 0
 174.333333333 525 176 520.333333333 176 511 c 2
 176 417 l 1
 200.666666667 477.666666667 240.333333333 508 295 508 c 0
 327 508 349 496.666666667 361 474 c 0
 375.666666667 444.666666667 383 425.666666667 383 417 c 2
 383 290 l 2
 382.333333333 288 381.666666667 287 381 287 c 0
 377.666666667 287 369.666666667 305.666666667 357 343 c 0
 343 384.333333333 335.333333333 406 334 408 c 0
 326 420.666666667 320 428.5 316 431.5 c 128
 312 434.5 303.666666667 437 291 439 c 1
 274.333333333 436.333333333 262 432.333333333 254 427 c 0
 235.333333333 413.666666667 220 395.333333333 208 372 c 0
 186.666666667 330.666666667 176 300.333333333 176 281 c 2
 176 117 l 2
 176 80.3333333333 182.666666667 56.3333333333 196 45 c 0
 200 41.6666666667 224.333333333 35.6666666667 269 27 c 0
 310.333333333 19 331 12.3333333333 331 7 c 0
 331 5 329 3.33333333333 325 2 c 2
 102 2 l 1
 102 341 l 2
EndSplineSet
Validated: 524321
EndChar

StartChar: s
Encoding: 115 115 69
Width: 419
Flags: HW
LayerCount: 2
Back
Fore
SplineSet
55 300 m 1
 30.3333333333 329.333333333 18 357.333333333 18 384 c 0
 18 428 31 461.666666667 57 485 c 0
 87.6666666667 512.333333333 126 526 172 526 c 0
 188.666666667 526 211 522.333333333 239 515 c 0
 259 510.333333333 274.666666667 498.333333333 286 479 c 1
 288 496.333333333 295.333333333 509 308 517 c 1
 328 517 l 1
 314 491 l 1
 314 288 l 1
 311.333333333 279.333333333 309 275 307 275 c 256
 305 275 299.666666667 294 291 332 c 0
 281 378 269 413.333333333 255 438 c 0
 233 476 204 495.333333333 168 496 c 0
 144.666666667 496.666666667 124.666666667 489.333333333 108 474 c 128
 91.3333333333 458.666666667 83 439.666666667 83 417 c 0
 83 395.666666667 102.666666667 355 142 295 c 2
 224 172 l 1
 174.666666667 206.666666667 118.333333333 249.333333333 55 300 c 1
234 271 m 2
 256.666666667 259.666666667 278.666666667 240.833333333 300 214.5 c 128
 321.333333333 188.166666667 337 160 347 130 c 0
 350.333333333 120 352 109.666666667 352 99 c 0
 352 67.6666666667 337.666666667 40 309 16 c 0
 275 -12.6666666667 231 -27 177 -27 c 0
 153 -27 127 -23.3333333333 99 -16 c 0
 58.3333333333 -6.66666666667 29.6666666667 25.3333333333 13 80 c 1
 12.3333333333 136.666666667 12.3333333333 185 13 225 c 0
 14.3333333333 234.333333333 15.6666666667 239 17 239 c 0
 20.3333333333 239 26.6666666667 212 36 158 c 0
 46 100 54 66 60 56 c 0
 82 23.3333333333 123 7 183 7 c 0
 209 7 231.166666667 13.6666666667 249.5 27 c 128
 267.833333333 40.3333333333 277 59.6666666667 277 85 c 0
 277 113 264 147.666666667 238 189 c 2
 164 307 l 1
 234 271 l 2
EndSplineSet
Validated: 524321
EndChar

StartChar: t
Encoding: 116 116 70
Width: 262
Flags: HW
LayerCount: 2
Back
Fore
SplineSet
82 461 m 1
 0 461 l 1
 42 504 l 1
 105 504 l 1
 148 652 l 1
 148 639.333333333 150 629.333333333 154 622 c 0
 156.666666667 618 159.333333333 613.666666667 162 609 c 1
 162 504 l 1
 281 504 l 1
 242 461 l 1
 162 461 l 1
 162 -155 l 1
 44 57 l 1
 82 57 l 1
 82 461 l 1
EndSplineSet
Validated: 524289
EndChar

StartChar: u
Encoding: 117 117 71
Width: 575
Flags: HW
LayerCount: 2
Back
Fore
SplineSet
516 214 m 1
 508.666666667 211.333333333 487 194 451 162 c 0
 409 124.666666667 376 97.6666666667 352 81 c 0
 312.666666667 53 281.333333333 39 258 39 c 0
 199.333333333 39 170 74.6666666667 170 146 c 2
 170 513 l 1
 1 513 l 2
 -8.33333333333 511 -13 509 -13 507 c 0
 -13 503.666666667 1 499.333333333 29 494 c 0
 59.6666666667 488.666666667 75.6666666667 485.333333333 77 484 c 0
 89.6666666667 474.666666667 96 454.333333333 96 423 c 2
 96 124 l 2
 96 73.3333333333 111 34 141 6 c 0
 158.333333333 -10 168 -18.6666666667 170 -20 c 0
 180 -26.6666666667 193.333333333 -29.6666666667 210 -29 c 0
 244 -29 273.333333333 -22.1666666667 298 -8.5 c 128
 322.666666667 5.16666666667 353 30 389 66 c 1
 387.666666667 9.33333333333 387.666666667 -19 389 -19 c 0
 397.666666667 -15.6666666667 405 -14 411 -14 c 0
 426.333333333 -14 434.333333333 -30 435 -62 c 1
 463.666666667 -44.6666666667 478 -14 478 30 c 2
 478 153 l 1
 522.666666667 197.666666667 545 224.333333333 545 233 c 0
 545 233.666666667 544.666666667 234 544 234 c 0
 540 234 530.666666667 227.333333333 516 214 c 1
378 155 m 1
 378 383 l 2
 378 425 358 446 318 446 c 2
 267 446 l 2
 257.666666667 446 253 447 253 449 c 0
 253 454.333333333 288.666666667 466 360 484 c 0
 399.333333333 494 438.666666667 503.666666667 478 513 c 1
 478 216 l 1
 402.666666667 147.333333333 360.333333333 113 351 113 c 0
 350.333333333 113 350 113.666666667 350 115 c 0
 350 119 359.333333333 132.333333333 378 155 c 1
EndSplineSet
Validated: 524329
EndChar

StartChar: v
Encoding: 118 118 72
Width: 552
Flags: HW
LayerCount: 2
Back
Fore
SplineSet
242 508 m 2
 255.333333333 508 262 507.333333333 262 506 c 0
 262 503.333333333 244.666666667 498.666666667 210 492 c 0
 173.333333333 484.666666667 154.666666667 481 154 481 c 0
 134 470.333333333 124 459.666666667 124 449 c 0
 124 445 129 431.666666667 139 409 c 2
 298 42 l 1
 299.333333333 46 306.666666667 60.6666666667 320 86 c 1
 324 85.3333333333 326 81.3333333333 326 74 c 0
 326 48.6666666667 311 11.3333333333 281 -38 c 1
 265 -27.3333333333 244.333333333 -12 219 8 c 1
 4 508 l 1
 242 508 l 2
503 470 m 2
 517 470.666666667 524 470 524 468 c 0
 524 464.666666667 511.666666667 458.333333333 487 449 c 128
 462.333333333 439.666666667 449.666666667 434.666666667 449 434 c 0
 444.333333333 430.666666667 441.666666667 428.333333333 441 427 c 0
 435 411 435 411 429 395 c 2
 303 93 l 1
 293 113 283.333333333 132.666666667 274 152 c 0
 259.333333333 182 252 199.333333333 252 204 c 0
 252 205.333333333 252.333333333 206 253 206 c 0
 255.666666667 206 264.333333333 196 279 176 c 1
 397 470 l 1
 503 470 l 2
EndSplineSet
Validated: 524289
EndChar

StartChar: w
Encoding: 119 119 73
Width: 842
Flags: HW
LayerCount: 2
Back
Fore
SplineSet
382 441 m 0
 374.666666667 458.333333333 360.666666667 471.666666667 340 481 c 0
 328 485.666666667 310.666666667 490 288 494 c 0
 271.333333333 496.666666667 263 499.333333333 263 502 c 0
 263 504 264.666666667 506.333333333 268 509 c 1
 440 509 l 1
 468 447 l 1
 415 353 l 1
 415 359 404 388.333333333 382 441 c 0
242 278 m 2
 211.333333333 350.666666667 179 427.666666667 145 509 c 1
 -10 509 l 2
 -16.6666666667 507 -20 505.333333333 -20 504 c 0
 -20 502 -6.66666666667 498.833333333 20 494.5 c 128
 46.6666666667 490.166666667 61 485.333333333 63 480 c 0
 97.6666666667 392.666666667 157.333333333 251 242 55 c 1
 292 150 l 1
 242 278 l 2
498 377 m 1
 511.333333333 411 524.333333333 445 537 479 c 0
 552.333333333 519.666666667 560 543 560 549 c 0
 560 550.333333333 559.666666667 551 559 551 c 0
 557.666666667 551 554.666666667 547.666666667 550 541 c 2
 253 24 l 1
 259.666666667 8.66666666667 270.333333333 -12 285 -38 c 1
 288.333333333 -38 291 -35.6666666667 293 -31 c 2
 447 278 l 1
 538 63 l 1
 585 159 l 1
 498 377 l 1
713 369 m 2
 731.666666667 407 741 435.333333333 741 454 c 0
 740.333333333 470.666666667 719 483.666666667 677 493 c 128
 635 502.333333333 614 506.666666667 614 506 c 1
 614.666666667 506.666666667 617.666666667 507.666666667 623 509 c 2
 802 509 l 1
 591 -27 l 2
 588.333333333 -34.3333333333 585.333333333 -38 582 -38 c 1
 574 -24 562.666666667 -1.66666666667 548 29 c 1
 713 369 l 2
EndSplineSet
Validated: 524325
EndChar

StartChar: x
Encoding: 120 120 74
Width: 580
Flags: HW
LayerCount: 2
Back
Fore
SplineSet
253 2 m 1
 251 8.66666666667 234 14.3333333333 202 19 c 128
 170 23.6666666667 153.166666667 27.5 151.5 30.5 c 128
 149.833333333 33.5 149 37.3333333333 149 42 c 0
 149 52 156 67.6666666667 170 89 c 2
 248 209 l 2
 249.333333333 207 255 193.666666667 265 169 c 0
 273 149 278 139 280 139 c 256
 282 139 282.666666667 143.666666667 282 153 c 2
 260 265 l 1
 231 280 l 1
 61 2 l 1
 253 2 l 1
285 202 m 1
 293 189.333333333 305.666666667 169.666666667 323 143 c 0
 356.333333333 93.6666666667 386 46.6666666667 412 2 c 1
 578 2 l 2
 584 4 587 5.66666666667 587 7 c 0
 587 7.66666666667 570.333333333 13.3333333333 537 24 c 0
 499.666666667 36 474 52.3333333333 460 73 c 2
 319 284 l 1
 280 308 l 1
 267 384 l 1
 240.333333333 420.666666667 206 469.333333333 164 530 c 1
 1 529 l 2
 -6.33333333333 527.666666667 -10 525.666666667 -10 523 c 0
 -10 519 6 513.666666667 38 507 c 0
 74.6666666667 499 93.8333333333 494.666666667 95.5 494 c 128
 97.1666666667 493.333333333 109.666666667 476 133 442 c 2
 230 302 l 1
 270 280 l 1
 285 202 l 1
279 530 m 2
 276.333333333 528.666666667 275 527.666666667 275 527 c 256
 275 526.333333333 291.166666667 522.166666667 323.5 514.5 c 128
 355.833333333 506.833333333 372.333333333 497.666666667 373 487 c 0
 373 476.333333333 350 438.666666667 304 374 c 1
 287.333333333 427.333333333 276.666666667 454 272 454 c 0
 271.333333333 453.333333333 271 452 271 450 c 0
 271 446 272 438.666666667 274 428 c 2
 294 320 l 1
 316 303 l 1
 466 530 l 1
 279 530 l 2
EndSplineSet
Validated: 524297
EndChar

StartChar: y
Encoding: 121 121 75
Width: 579
Flags: HW
LayerCount: 2
Back
Fore
SplineSet
434 428 m 0
 441.333333333 448.666666667 445 465 445 477 c 256
 445 489 440.666666667 495 432 495 c 1
 432.666666667 495 419.333333333 490.666666667 392 482 c 1
 426 520 l 1
 617 520 l 2
 619 520 620 519.666666667 620 519 c 1
 620 519.666666667 601.666666667 513.833333333 565 501.5 c 128
 528.333333333 489.166666667 507.333333333 476 502 462 c 2
 316 -32 l 2
 287.333333333 -108 258.333333333 -164 229 -200 c 0
 224.333333333 -205.333333333 222 -211 222 -217 c 0
 222 -225 226 -233 234 -241 c 0
 239.333333333 -245.666666667 244.333333333 -250.333333333 249 -255 c 1
 245.666666667 -255.666666667 242 -256.333333333 238 -257 c 0
 231.333333333 -256.333333333 210.666666667 -250.666666667 176 -240 c 0
 169.333333333 -238 165 -237 163 -237 c 0
 158.333333333 -237 149.666666667 -250.333333333 137 -277 c 1
 104.333333333 -221 66.6666666667 -157 24 -85 c 1
 28.6666666667 -81.6666666667 42.3333333333 -92.3333333333 65 -117 c 0
 92.3333333333 -147.666666667 106.333333333 -163.666666667 107 -165 c 0
 128.333333333 -179.666666667 146.333333333 -187 161 -187 c 0
 182.333333333 -187 209.333333333 -156 242 -94 c 0
 251.333333333 -75.3333333333 267 -34.3333333333 289 29 c 0
 307 81 307 81 325 133 c 0
 351 195 387.333333333 293.333333333 434 428 c 0
193 424 m 2
 181 448.666666667 175 462.333333333 175 465 c 0
 175 473 197.5 483.666666667 242.5 497 c 128
 287.5 510.333333333 310 517.666666667 310 519 c 0
 310 519.666666667 308.666666667 520 306 520 c 0
 277.333333333 520 264 520 266 520 c 1
 251 520 251 520 208 520 c 0
 91.3333333333 520 34.6666666667 520 38 520 c 2
 0 480 l 2
 3.33333333333 480.666666667 11.6666666667 484 25 490 c 0
 34.3333333333 494 41.3333333333 496 46 496 c 0
 54 496 68.3333333333 474 89 430 c 2
 268 48 l 1
 311 167 l 1
 193 424 l 2
EndSplineSet
Validated: 524325
EndChar

StartChar: z
Encoding: 122 122 76
Width: 542
Flags: HW
LayerCount: 2
Back
Fore
SplineSet
437 529 m 1
 461 494 l 1
 116 34 l 1
 309 34 l 2
 355.666666667 34 387.333333333 41.3333333333 404 56 c 0
 408 59.3333333333 426 100.666666667 458 180 c 0
 489.333333333 257.333333333 506.333333333 296 509 296 c 0
 509.666666667 296 510 295.333333333 510 294 c 0
 510 290.666666667 508 282.333333333 504 269 c 2
 481 163 l 1
 443 1 l 1
 22 1 l 1
 4 38 l 1
 370 498 l 1
 183 498 l 2
 144.333333333 498 117.666666667 490 103 474 c 0
 99.6666666667 470.666666667 93 433 83 361 c 0
 73.6666666667 291.666666667 66.3333333333 257 61 257 c 0
 59 257 57 262.333333333 55 273 c 2
 55 529 l 1
 437 529 l 1
EndSplineSet
Validated: 524289
EndChar

StartChar: dagger
Encoding: 259 8224 77
Width: 332
Flags: HW
LayerCount: 2
Back
Fore
SplineSet
214 249 m 1
 214 560 l 1
 335 560 l 1
 306 586 l 1
 220 586 l 1
 205 589 l 1
 205 667 l 1
 236 666 l 1
 264 710 l 1
 68 710 l 1
 96 666 l 1
 130 667 l 1
 130 589 l 1
 116 586 l 1
 29 586 l 1
 1 560 l 1
 122 560 l 1
 122 249 l 1
 144 230 l 1
 145 185 l 1
 156 177 l 1
 156 139 l 1
 162 125 l 1
 170 -139 l 1
 174 125 l 1
 179 139 l 1
 179 177 l 1
 191 185 l 1
 192 230 l 1
 214 249 l 1
194 437 m 1
 194 523 l 1
 166 523 l 1
 166 529 l 1
 199 529 l 1
 199 320 l 1
 169 320 l 1
 169 327 l 1
 194 327 l 1
 194 431 l 1
 179 431 l 1
 179 437 l 1
 194 437 l 1
EndSplineSet
Validated: 9
EndChar

StartChar: AE
Encoding: 198 198 78
Width: 933
Flags: W
HStem: -20 17<165.556 221.899> -19 31<546.976 753.242> 238 7<8 41.378> 529 20G<379 389.5> 644 43<529.048 557 698 784.955> 656 31<306.082 337.266>
VStem: 851 0<464 499>
LayerCount: 2
Back
Fore
SplineSet
399 535 m 2x36
 399 320 l 1
 8 238 l 1
 155 245 l 1
 -13 -20 l 1
 266 -20 l 1
 242 -15 218 -9 193 -3 c 0
 168 3 151 10 141 19 c 0
 138 22 136 28 136 39 c 0
 136 60 140 79 148 98 c 0
 149 100 176 154 230 259 c 1
 660 330 l 2
 666 331 672 332 678 332 c 0
 703 332 724 323 740 305 c 0
 742 302 743 299 743 296 c 0
 743 290 739 279 731 263 c 0
 721 242 714 227 711 216 c 1
 779 302 l 1
 819 428 l 1
 772 410 l 1
 727 397 683 382 624 370 c 2
 528 349 l 1
 528 613 l 2
 528 633 538 643 557 644 c 2xba
 698 647 l 2
 734 647 764 639 784 624 c 0
 804 607 848 499 851 464 c 1
 851 464 851 528 851 560 c 0
 851 600 849 629 846 645 c 0
 841 675 831 690 815 690 c 2
 290 687 l 1
 291 621 l 1
 307 644 319 656 327 656 c 0
 334 656 338 647 338 629 c 0
 338 622 335 612 330 600 c 2
 187 299 l 1
 247 308 l 1
 247 308 269 359 303 432 c 0
 340 511 371 549 387 549 c 0
 392 549 399 545 399 535 c 2x36
923 227 m 1
 900 187 797 48 759 29 c 0
 736 18 693 12 628 12 c 0x72
 594 12 569 15 554 22 c 0
 542 27 536 45 535 76 c 2
 535 281 l 1
 399 263 l 1
 399 -20 l 1xb2
 475 -20 551 -20 627 -19 c 1x72
 734 -22 797 -40 815 -71 c 1
 923 227 l 1
EndSplineSet
Validated: 9
EndChar

StartChar: currency
Encoding: 164 164 79
Width: 571
Flags: HW
LayerCount: 2
Back
Fore
SplineSet
458 484 m 0
 458 526 445.333333333 562.333333333 420 593 c 1
 452 625 l 1
 472.666666667 618.333333333 493.333333333 606 514 588 c 128
 534.666666667 570 548.333333333 552 555 534 c 1
 552.333333333 561.333333333 537.666666667 592.333333333 511 627 c 0
 487 657.666666667 463.666666667 679.333333333 441 692 c 1
 380 630 l 1
 353.333333333 648.666666667 322 658 286 658 c 0
 244 658 208 645.333333333 178 620 c 1
 153 645 l 1
 159.666666667 665.666666667 172 686.5 190 707.5 c 128
 208 728.5 226 742.333333333 244 749 c 1
 216 745.666666667 185 730.666666667 151 704 c 0
 120.333333333 680 98.6666666667 657 86 635 c 1
 142 579 l 1
 122.666666667 551.666666667 113 520 113 484 c 0
 113 444.666666667 124.333333333 410.333333333 147 381 c 1
 120 353 l 1
 99.3333333333 359 78.5 371.166666667 57.5 389.5 c 128
 36.5 407.833333333 22.6666666667 426 16 444 c 1
 19.3333333333 416 34.3333333333 385 61 351 c 0
 84.3333333333 320.333333333 107.333333333 298.666666667 130 286 c 1
 186 342 l 1
 214.666666667 320.666666667 248 310 286 310 c 0
 318.666666667 310 348 318 374 334 c 1
 408 299 l 1
 402 278.333333333 389.833333333 257.666666667 371.5 237 c 128
 353.166666667 216.333333333 335 202.666666667 317 196 c 1
 345 198.666666667 376 213.333333333 410 240 c 0
 440.666666667 264 462.333333333 287.333333333 475 310 c 1
 416 369 l 1
 444 400.333333333 458 438.666666667 458 484 c 0
188 488 m 256
 188 516 197.5 540 216.5 560 c 128
 235.5 580 258.666666667 590 286 590 c 0
 312.666666667 590 335.666666667 580 355 560 c 128
 374.333333333 540 384 516 384 488 c 256
 384 460 374.333333333 436 355 416 c 128
 335.666666667 396 312.666666667 386 286 386 c 0
 258.666666667 386 235.5 396 216.5 416 c 128
 197.5 436 188 460 188 488 c 256
EndSplineSet
Validated: 524297
EndChar
